<svg width="225" height="40" viewBox="0 0 225 40" fill="none" xmlns="http://www.w3.org/2000/svg">
<g clip-path="url(#clip0_148_76)">
<mask id="mask0_148_76" style="mask-type:luminance" maskUnits="userSpaceOnUse" x="0" y="0" width="225" height="40">
<path d="M225 0H0V40H225V0Z" fill="white"/>
</mask>
<g mask="url(#mask0_148_76)">
<mask id="mask1_148_76" style="mask-type:luminance" maskUnits="userSpaceOnUse" x="0" y="0" width="225" height="40">
<path d="M224.385 0H0V40H224.385V0Z" fill="white"/>
</mask>
<g mask="url(#mask1_148_76)">
<path d="M19.275 7.03396H11.227C9.43839 7.09581 7.71219 7.70688 6.28302 8.78412C4.85385 9.86137 3.79103 11.3526 3.23901 13.055C2.88101 14.426 2.16601 17.228 1.68901 19.255C1.08901 21.878 0.258005 26.289 0.0790052 27.124C-0.0842372 27.8739 -0.0700581 28.6515 0.120412 29.3949C0.310883 30.1383 0.672378 30.827 1.17608 31.4059C1.67979 31.9849 2.31178 32.4382 3.02168 32.7297C3.73159 33.0213 4.49977 33.1429 5.26501 33.085H13.372C15.1995 33.0078 16.9559 32.3553 18.3904 31.2205C19.8249 30.0857 20.8643 28.5266 21.36 26.766C21.42 26.647 22.373 21.639 22.91 19.314C23.327 17.406 24.4 13.414 24.4 13.414C24.6301 12.6427 24.6694 11.827 24.5147 11.0371C24.3599 10.2472 24.0157 9.50665 23.5117 8.87912C23.0076 8.2516 22.3587 7.75584 21.6207 7.43444C20.8828 7.11304 20.0778 6.97561 19.275 7.03396ZM17.308 13.889C17.308 13.889 16.354 17.466 15.934 19.314C15.397 21.639 14.801 24.62 14.503 26.289C14.3431 26.8965 13.9888 27.4349 13.4943 27.8222C12.9998 28.2095 12.3921 28.4244 11.764 28.434H8.96401C8.69435 28.4519 8.42435 28.4046 8.17681 28.2961C7.92928 28.1877 7.71148 28.0212 7.54182 27.8109C7.37216 27.6005 7.25562 27.3524 7.20205 27.0875C7.14847 26.8226 7.15943 26.5488 7.234 26.289C7.65134 23.9643 8.12834 21.6393 8.665 19.314C9.082 17.466 9.55901 15.678 10.036 13.83C10.212 13.2309 10.571 12.7019 11.0627 12.3171C11.5544 11.9322 12.1542 11.7109 12.778 11.684H15.52C15.7974 11.6663 16.0749 11.7152 16.3295 11.8267C16.584 11.9382 16.8082 12.1091 16.9832 12.3249C17.1583 12.5408 17.2791 12.7954 17.3356 13.0675C17.3921 13.3396 17.3826 13.6213 17.308 13.889ZM92.834 7.03396H79.126C78.9814 7.03822 78.8414 7.08603 78.7243 7.17113C78.6073 7.25623 78.5186 7.37467 78.47 7.51096C77.278 11.386 76.205 15.32 75.251 19.255C74.238 23.786 73.403 28.197 72.807 32.608C72.8012 32.6721 72.8095 32.7367 72.8314 32.7972C72.8533 32.8578 72.8883 32.9127 72.9338 32.9582C72.9793 33.0037 73.0343 33.0387 73.0948 33.0606C73.1553 33.0825 73.2199 33.0908 73.284 33.085H79.126C79.2863 33.0811 79.4413 33.0272 79.5694 32.9309C79.6976 32.8347 79.7925 32.7008 79.841 32.548C80.441 28.196 81.272 23.785 82.285 19.314C82.702 17.466 83.179 15.678 83.656 13.889C83.832 13.2899 84.191 12.7609 84.6827 12.3761C85.1744 11.9912 85.7742 11.7699 86.398 11.743H89.14C89.4166 11.7214 89.6942 11.7685 89.9481 11.8801C90.2021 11.9917 90.4245 12.1644 90.5956 12.3827C90.7668 12.601 90.8813 12.8583 90.9289 13.1315C90.9766 13.4048 90.956 13.6856 90.869 13.949C90.869 13.949 89.915 17.526 89.498 19.374C88.485 23.905 87.65 28.316 87.054 32.727C87.0482 32.7911 87.0565 32.8557 87.0784 32.9162C87.1003 32.9768 87.1353 33.0317 87.1808 33.0772C87.2263 33.1227 87.2813 33.1577 87.3418 33.1796C87.4023 33.2015 87.4669 33.2098 87.531 33.204H93.373C93.5332 33.2001 93.6883 33.1462 93.8164 33.0499C93.9446 32.9537 94.0395 32.8198 94.088 32.667C94.565 29.15 95.519 23.904 96.532 19.433C96.949 17.525 97.724 14.545 97.963 13.651C98.2122 12.8661 98.267 12.0324 98.1228 11.2216C97.9786 10.4109 97.6397 9.64719 97.1352 8.99632C96.6307 8.34545 95.9757 7.82682 95.2265 7.485C94.4773 7.14318 93.6562 6.9884 92.834 7.03396ZM68.334 7.03396H60.288C58.4994 7.09581 56.7732 7.70688 55.344 8.78412C53.9148 9.86137 52.852 11.3526 52.3 13.055C52.062 13.949 51.227 17.168 50.75 19.255C50.15 21.878 49.617 24.501 49.14 27.064C48.97 27.8176 48.979 28.6005 49.166 29.35C49.3531 30.0995 49.7131 30.7947 50.2173 31.38C50.7214 31.9653 51.3556 32.4244 52.0691 32.7205C52.7826 33.0166 53.5556 33.1414 54.326 33.085H65.892C66.549 33.0579 67.1789 32.8157 67.6848 32.3956C68.1907 31.9755 68.5446 31.4008 68.692 30.76C68.811 30.104 68.871 29.449 68.992 28.972C69.011 28.9083 69.0145 28.841 69.0022 28.7756C68.99 28.7103 68.9623 28.6488 68.9215 28.5963C68.8808 28.5438 68.8281 28.5018 68.7678 28.4737C68.7075 28.4457 68.6414 28.4324 68.575 28.435H58.023C57.7533 28.4528 57.4833 28.4053 57.2358 28.2968C56.9883 28.1882 56.7706 28.0216 56.601 27.8112C56.4314 27.6007 56.315 27.3525 56.2616 27.0876C56.2082 26.8226 56.2193 26.5487 56.294 26.289L56.652 24.501C56.7005 24.3482 56.7954 24.2143 56.9236 24.1181C57.0517 24.0218 57.2068 23.968 57.367 23.964H64.342C66.1825 23.9086 67.9569 23.2651 69.4052 22.128C70.8534 20.9909 71.8995 19.4198 72.39 17.645C72.69 16.274 73.046 15.145 73.463 13.413C73.6837 12.6419 73.7161 11.8291 73.5574 11.0428C73.3987 10.2566 73.0535 9.51995 72.5509 8.89487C72.0483 8.26978 71.403 7.7745 70.6692 7.45068C69.9354 7.12685 69.1345 6.98394 68.334 7.03396ZM65.475 17.109C65.2862 17.7116 64.9159 18.2411 64.4147 18.6252C63.9135 19.0093 63.3059 19.2293 62.675 19.255H57.725C58.142 17.407 58.619 15.619 59.096 13.771C59.2716 13.1723 59.6299 12.6436 60.1208 12.2586C60.6118 11.8736 61.2108 11.6517 61.834 11.624H64.576C64.8533 11.6014 65.132 11.648 65.3869 11.7595C65.6418 11.871 65.8651 12.044 66.0368 12.2629C66.2086 12.4819 66.3233 12.74 66.3708 13.0142C66.4183 13.2884 66.3971 13.57 66.309 13.834C66.309 13.889 65.773 16.034 65.475 17.109ZM43.776 7.03396H30.065C29.9072 7.04648 29.7562 7.1036 29.6296 7.19868C29.503 7.29376 29.406 7.42288 29.35 7.57096C28.158 11.446 27.085 15.321 26.191 19.255C24.9865 24.2155 24.1297 29.2541 23.627 34.334C23.327 37.792 25.475 39.997 29.171 39.997C29.367 40.0116 29.5613 39.9524 29.7158 39.831C29.8703 39.7097 29.9738 39.5349 30.006 39.341C30.125 37.97 30.423 34.81 30.606 33.678C30.6408 33.5124 30.7302 33.3633 30.8599 33.2545C30.9895 33.1457 31.1519 33.0836 31.321 33.078H37.934C39.8302 32.9989 41.6472 32.2957 43.1026 31.0776C44.558 29.8594 45.5702 28.1947 45.982 26.342C46.399 24.017 46.876 21.633 47.413 19.248C47.83 17.34 48.486 15.016 48.903 13.348C49.856 9.89496 47.472 7.03396 43.776 7.03396ZM40.434 19.255C39.897 21.58 39.003 26.23 39.003 26.23C38.8431 26.8381 38.4885 27.3772 37.9934 27.7647C37.4982 28.1522 36.8897 28.3669 36.261 28.376H31.376C31.913 25.336 32.509 22.296 33.224 19.196C33.824 16.633 34.476 14.129 35.191 11.625H40.139C40.4159 11.6032 40.6939 11.6503 40.9482 11.7621C41.2025 11.8738 41.4251 12.0468 41.5963 12.2655C41.7675 12.4842 41.8819 12.7419 41.9293 13.0156C41.9767 13.2893 41.9557 13.5704 41.868 13.834C41.808 13.889 40.855 17.466 40.434 19.255Z" fill="#C0C0C0"/>
<path d="M119.364 7.03397H109.464C107.676 7.05422 105.937 7.62626 104.486 8.67191C103.035 9.71756 101.942 11.1858 101.357 12.876C101.246 13.3606 101.106 13.8384 100.94 14.307C100.225 17.107 101.476 19.136 104.04 20.328L110.84 23.487C111.134 23.63 111.374 23.8638 111.524 24.1538C111.674 24.4438 111.727 24.7745 111.675 25.097C111.615 25.397 111.437 26.289 111.437 26.349C111.277 26.9571 110.923 27.4962 110.427 27.8837C109.932 28.2712 109.324 28.486 108.695 28.495H98.559C98.3912 28.4979 98.228 28.5505 98.0901 28.646C97.9522 28.7416 97.8456 28.8759 97.784 29.032C97.665 29.688 97.426 31.178 97.426 31.178C97.3769 31.4314 97.3876 31.6927 97.4572 31.9412C97.5268 32.1897 97.6535 32.4186 97.8271 32.6096C98.0007 32.8006 98.2164 32.9484 98.4572 33.0413C98.698 33.1343 98.9571 33.1698 99.214 33.145H110.244C112.136 33.0909 113.957 32.4125 115.423 31.2157C116.89 30.0189 117.919 28.3708 118.351 26.528C118.47 26.051 118.651 24.918 118.651 24.918C118.871 23.738 118.669 22.5182 118.081 21.472C117.492 20.4257 116.555 19.6197 115.432 19.195L108.755 16.036C108.444 15.9143 108.189 15.684 108.035 15.3879C107.881 15.0918 107.841 14.75 107.92 14.426C107.98 14.188 108.039 14.009 108.099 13.77C108.275 13.1709 108.634 12.6419 109.126 12.2571C109.617 11.8722 110.217 11.6509 110.841 11.624H119.841C120.001 11.6201 120.156 11.5662 120.284 11.4699C120.413 11.3737 120.508 11.2398 120.556 11.087C120.675 10.61 121.156 9.17897 121.156 9.17897C121.224 8.91448 121.228 8.63761 121.168 8.37122C121.108 8.10484 120.985 7.8566 120.81 7.64702C120.635 7.43744 120.412 7.27254 120.161 7.16594C119.91 7.05934 119.636 7.01411 119.364 7.03397ZM186.607 11.565L187.744 7.57097C187.863 7.27097 187.625 7.03397 187.267 7.03397H181.842C180.056 7.10444 178.334 7.71879 176.906 8.79481C175.479 9.87083 174.414 11.3572 173.854 13.055C173.317 14.843 172.721 17.287 172.304 19.314C171.291 23.785 170.456 28.256 169.86 32.608C169.86 32.908 169.979 33.145 170.337 33.145H176.179C176.344 33.1637 176.51 33.1185 176.643 33.0187C176.776 32.9188 176.866 32.7719 176.894 32.608C177.494 28.256 178.325 23.845 179.338 19.374C179.696 17.705 180.59 14.426 180.59 14.426C180.742 13.8085 181.093 13.2581 181.588 12.8595C182.084 12.4609 182.696 12.2362 183.332 12.22H185.955C186.112 12.179 186.256 12.0966 186.37 11.9814C186.485 11.8662 186.567 11.7225 186.607 11.565ZM202.225 11.625C202.583 10.254 202.94 8.94197 203.358 7.57097C203.376 7.50225 203.377 7.43017 203.36 7.36111C203.343 7.29204 203.31 7.22813 203.263 7.17504C203.216 7.12194 203.156 7.08128 203.09 7.05668C203.023 7.03207 202.951 7.02428 202.881 7.03397H198.827C198.758 7.03829 198.689 7.02682 198.625 7.00043C198.561 6.97405 198.504 6.93344 198.458 6.88169C198.412 6.82994 198.378 6.76841 198.359 6.70175C198.341 6.6351 198.338 6.56507 198.35 6.49697C198.827 4.94698 200.138 1.13197 200.377 0.535975C200.4 0.472202 200.407 0.4035 200.397 0.336351C200.386 0.269203 200.359 0.205821 200.317 0.152185C200.276 0.0985505 200.221 0.0564302 200.158 0.0297989C200.096 0.00316748 200.028 -0.00709686 199.96 -2.57648e-05H199.602C196.085 -2.57648e-05 193.164 1.37097 191.614 5.84197C188.455 14.665 186.014 28.256 185.414 32.608C185.396 32.6767 185.395 32.7488 185.412 32.8179C185.429 32.8869 185.462 32.9508 185.509 33.0039C185.556 33.057 185.616 33.0977 185.682 33.1223C185.749 33.1469 185.821 33.1547 185.891 33.145H191.733C191.893 33.1411 192.048 33.0872 192.176 32.9909C192.305 32.8947 192.4 32.7608 192.448 32.608C193.048 28.256 193.879 23.845 194.892 19.374C195.249 17.7073 195.667 16.0383 196.144 14.367C196.31 13.762 196.666 13.2266 197.16 12.84C197.654 12.4534 198.259 12.2364 198.886 12.221H201.509C201.674 12.2032 201.83 12.137 201.957 12.0308C202.085 11.9246 202.178 11.783 202.225 11.624V11.625ZM140.825 7.03498H127.114C126.956 7.04749 126.805 7.10462 126.679 7.1997C126.552 7.29478 126.455 7.42389 126.399 7.57197C125.207 11.447 124.134 15.322 123.24 19.256C122.036 24.2176 121.179 29.2571 120.677 34.338C120.377 37.796 122.525 40.001 126.221 40.001C126.417 40.0156 126.611 39.9564 126.766 39.835C126.92 39.7137 127.024 39.5389 127.056 39.345C127.175 37.974 127.473 34.814 127.656 33.682C127.691 33.5164 127.78 33.3673 127.91 33.2585C128.039 33.1497 128.202 33.0876 128.371 33.082H134.988C136.884 33.0029 138.701 32.2997 140.157 31.0816C141.612 29.8634 142.624 28.1987 143.036 26.346C143.453 24.021 143.93 21.637 144.467 19.252C144.884 17.344 145.54 15.02 145.957 13.352C146.844 9.89997 144.461 7.03397 140.825 7.03397V7.03498ZM137.487 19.256C136.95 21.581 136.056 26.231 136.056 26.231C135.896 26.8391 135.542 27.3782 135.046 27.7657C134.551 28.1532 133.943 28.368 133.314 28.377H128.426C128.903 25.337 129.559 22.297 130.274 19.197C130.874 16.634 131.526 14.13 132.241 11.626H137.129C137.406 11.6044 137.683 11.6515 137.937 11.7631C138.191 11.8747 138.414 12.0474 138.585 12.2657C138.756 12.484 138.87 12.7413 138.918 13.0145C138.966 13.2878 138.945 13.5686 138.858 13.832C138.798 13.89 137.904 17.466 137.486 19.255L137.487 19.256ZM165.387 7.03498H157.339C155.55 7.09682 153.824 7.70789 152.395 8.78513C150.966 9.86238 149.903 11.3536 149.351 13.056C148.993 14.427 148.278 17.169 147.801 19.256C147.201 21.879 146.37 26.29 146.191 27.125C146.028 27.8749 146.042 28.6525 146.232 29.3959C146.423 30.1393 146.784 30.828 147.288 31.4069C147.792 31.9859 148.424 32.4392 149.134 32.7307C149.844 33.0223 150.612 33.1439 151.377 33.086H159.484C161.311 33.0088 163.068 32.3563 164.502 31.2215C165.937 30.0867 166.976 28.5277 167.472 26.767C167.532 26.648 168.485 21.64 169.022 19.315C169.439 17.407 170.512 13.415 170.512 13.415C170.735 12.6438 170.77 11.8301 170.612 11.0428C170.455 10.2555 170.11 9.51761 169.607 8.89169C169.104 8.26578 168.458 7.77018 167.723 7.44683C166.988 7.12347 166.186 6.98186 165.385 7.03397L165.387 7.03498ZM163.36 13.89C163.36 13.89 162.406 17.467 161.989 19.315C161.452 21.64 160.856 24.621 160.558 26.29C160.398 26.8981 160.044 27.4372 159.548 27.8247C159.053 28.2122 158.445 28.427 157.816 28.436H155.074C154.804 28.4538 154.534 28.4064 154.287 28.2978C154.039 28.1892 153.822 28.0226 153.652 27.8122C153.482 27.6017 153.366 27.3535 153.313 27.0886C153.259 26.8236 153.27 26.5497 153.345 26.29C153.762 23.9653 154.239 21.6403 154.776 19.315C155.193 17.467 155.67 15.679 156.147 13.831C156.323 13.2319 156.682 12.7029 157.174 12.3181C157.665 11.9332 158.265 11.7119 158.889 11.685H161.631C161.906 11.6692 162.18 11.7202 162.431 11.8335C162.682 11.9469 162.901 12.1192 163.071 12.3359C163.241 12.5525 163.356 12.8071 163.405 13.0777C163.455 13.3483 163.439 13.627 163.358 13.89H163.36ZM222.56 7.03498H212.66C210.872 7.05522 209.133 7.62726 207.682 8.67291C206.231 9.71856 205.138 11.1868 204.553 12.877C204.442 13.3616 204.302 13.8394 204.136 14.308C203.421 17.108 204.672 19.137 207.236 20.329L214.036 23.488C214.33 23.631 214.57 23.8648 214.72 24.1548C214.87 24.4448 214.923 24.7755 214.871 25.098C214.811 25.398 214.633 26.29 214.633 26.35C214.473 26.9581 214.119 27.4972 213.623 27.8847C213.128 28.2722 212.52 28.487 211.891 28.496H201.744C201.576 28.4989 201.413 28.5515 201.275 28.647C201.137 28.7426 201.031 28.8769 200.969 29.033C200.85 29.689 200.611 31.179 200.611 31.179C200.562 31.4324 200.573 31.6937 200.642 31.9422C200.712 32.1907 200.838 32.4196 201.012 32.6106C201.186 32.8016 201.401 32.9494 201.642 33.0423C201.883 33.1353 202.142 33.1708 202.399 33.146H213.427C215.319 33.0918 217.14 32.4135 218.606 31.2167C220.073 30.0199 221.102 28.3718 221.534 26.529C221.653 26.052 221.834 24.919 221.834 24.919C222.054 23.739 221.852 22.5192 221.264 21.473C220.675 20.4267 219.738 19.6207 218.615 19.196L211.944 16.036C211.633 15.9143 211.378 15.684 211.224 15.3879C211.07 15.0918 211.03 14.75 211.109 14.426C211.169 14.188 211.228 14.009 211.288 13.77C211.464 13.1709 211.823 12.6419 212.315 12.2571C212.806 11.8722 213.406 11.6509 214.03 11.624H223.03C223.19 11.6201 223.345 11.5662 223.473 11.4699C223.602 11.3737 223.697 11.2398 223.745 11.087C223.864 10.61 224.345 9.17897 224.345 9.17897C224.413 8.91448 224.417 8.63761 224.357 8.37122C224.297 8.10484 224.174 7.8566 223.999 7.64702C223.824 7.43744 223.601 7.27254 223.35 7.16594C223.099 7.05934 222.825 7.01411 222.553 7.03397L222.56 7.03498Z" fill="#C0C0C0"/>
</g>
</g>
</g>
<defs>
<clipPath id="clip0_148_76">
<rect width="225" height="40" fill="white"/>
</clipPath>
</defs>
</svg>
