<svg width="1465" height="528" viewBox="0 0 1465 528" fill="none" xmlns="http://www.w3.org/2000/svg">
<g clip-path="url(#clip0_148_87)">
<mask id="mask0_148_87" style="mask-type:luminance" maskUnits="userSpaceOnUse" x="0" y="0" width="1465" height="528">
<path d="M1465 0H0V528H1465V0Z" fill="white"/>
</mask>
<g mask="url(#mask0_148_87)">
<mask id="mask1_148_87" style="mask-type:luminance" maskUnits="userSpaceOnUse" x="0" y="0" width="1465" height="528">
<path d="M1464.1 0H0V527.4H1464.1V0Z" fill="white"/>
</mask>
<g mask="url(#mask1_148_87)">
<path d="M680.3 78.9C685.2 80.8 689.9 83.4999 694.3 87.2999L682.9 100.9C679.9 98.6 676.9 96.8 674 95.6C671.1 94.4 667.9 93.7999 664.6 93.7999C657.8 93.7999 652.4 96.7 648.4 102.4C644.4 108.2 642.5 117.1 642.5 129.1C642.5 140.9 644.5 149.7 648.4 155.4C652.4 161.1 657.9 164 664.9 164C668.6 164 672 163.3 675 161.9C678 160.5 681.3 158.5 684.8 155.8L695.5 169.6C691.7 173.4 687.1 176.5 681.6 179C676.2 181.4 670.2 182.7 663.6 182.7C654.2 182.7 646.1 180.6 639.1 176.5C632.2 172.4 626.8 166.3 622.9 158.3C619 150.2 617.1 140.5 617.1 129.2C617.1 118.2 619.1 108.6 623 100.6C627 92.6 632.4 86.5 639.4 82.4C646.4 78.2 654.3 76.1999 663.2 76.1999C669.7 76.0999 675.3 77 680.3 78.9Z" fill="#C0C0C0"/>
<path d="M775 78.6L772.5 95.8H736.8V120.1H768V136.9H736.8V162.9H775V180.2H712.7V78.6H775Z" fill="#C0C0C0"/>
<path d="M829.8 141.3H820.4V180.1H796.4V78.5H829.7C843.6 78.5 854 81 861 86.1C868 91.2 871.5 99 871.5 109.4C871.5 115.9 869.9 121.4 866.8 125.7C863.7 130 858.7 133.7 852 136.8L877.8 180H850.7L829.8 141.3ZM820.5 124.8H830.6C836 124.8 840 123.6 842.7 121.1C845.4 118.7 846.7 114.8 846.7 109.5C846.7 104.6 845.3 101 842.4 98.8C839.5 96.6 835.1 95.4 829.1 95.4H820.5V124.8Z" fill="#C0C0C0"/>
<path d="M968.2 78.6L939.9 180.2H910L880.7 78.6H906.1L925.4 161.4L943.6 78.6H968.2Z" fill="#C0C0C0"/>
<path d="M1044.6 78.6L1042.1 95.8H1006.3V120.1H1037.5V136.9H1006.3V162.9H1044.6V180.2H982.3V78.6H1044.6Z" fill="#C0C0C0"/>
<path d="M1122.3 78.9C1127.2 80.8 1131.9 83.4999 1136.3 87.2999L1124.9 100.9C1121.9 98.6 1118.9 96.8 1116 95.6C1113.1 94.4 1109.9 93.7999 1106.6 93.7999C1099.8 93.7999 1094.4 96.7 1090.4 102.4C1086.4 108.2 1084.5 117.1 1084.5 129.1C1084.5 140.9 1086.5 149.7 1090.4 155.4C1094.4 161.1 1099.9 164 1106.9 164C1110.6 164 1114 163.3 1117 161.9C1120 160.5 1123.3 158.5 1126.8 155.8L1137.5 169.6C1133.7 173.4 1129.1 176.5 1123.6 179C1118.2 181.4 1112.2 182.7 1105.6 182.7C1096.2 182.7 1088.1 180.6 1081.1 176.5C1074.2 172.4 1068.8 166.3 1064.9 158.3C1061 150.2 1059.1 140.5 1059.1 129.2C1059.1 118.2 1061.1 108.6 1065 100.6C1069 92.6 1074.4 86.5 1081.4 82.4C1088.4 78.2 1096.3 76.1999 1105.2 76.1999C1111.7 76.0999 1117.4 77 1122.3 78.9Z" fill="#C0C0C0"/>
<path d="M1217.1 78.6L1214.6 95.8H1178.8V120.1H1210V136.9H1178.8V162.9H1217.1V180.2H1154.8V78.6H1217.1Z" fill="#C0C0C0"/>
<path d="M1271.9 141.3H1262.5V180.1H1238.5V78.5H1271.8C1285.7 78.5 1296.1 81 1303.1 86.1C1310.1 91.2 1313.6 99 1313.6 109.4C1313.6 115.9 1312 121.4 1308.9 125.7C1305.8 130 1300.8 133.7 1294.1 136.8L1319.9 180H1292.8L1271.9 141.3ZM1262.5 124.8H1272.6C1278 124.8 1282 123.6 1284.7 121.1C1287.4 118.7 1288.7 114.8 1288.7 109.5C1288.7 104.6 1287.3 101 1284.4 98.8C1281.5 96.6 1277.1 95.4 1271.1 95.4H1262.5V124.8Z" fill="#C0C0C0"/>
<path d="M1359.3 40.1L1367.9 57.4L1332.7 70.2L1326.8 58.5L1359.3 40.1ZM1359.6 180.2H1335.6V78.6H1359.6V180.2Z" fill="#C0C0C0"/>
<path d="M1438.6 180.2L1433.3 158.4H1403.7L1398.6 180.2H1373.7L1404.3 78.6H1433.5L1464.1 180.2H1438.6ZM1407.8 140.9H1429.2L1418.5 96L1407.8 140.9Z" fill="#C0C0C0"/>
<path d="M700.4 221.1L667.9 284.6V322.7H643.8V284.7L611.3 221.1H637.5L656.3 265.8L675.1 221.1H700.4Z" fill="#C0C0C0"/>
<path d="M857.7 322.7H834.1L832.3 283C831.8 273.5 831.6 265.1 831.6 257.6C831.6 251.9 831.7 246.6 832 241.5L816.3 312H793.6L776.9 241.5C777.5 250 777.8 258 777.8 265.5C777.8 271.2 777.7 277.1 777.4 283.2L775.6 322.6H752.1L759.7 221H790L805.2 289.9L819.4 221H849.9L857.7 322.7Z" fill="#C0C0C0"/>
<path d="M932.1 322.7L926.8 300.9H897.2L892.1 322.7H867.2L897.8 221.1H927L957.6 322.7H932.1ZM901.4 283.4H922.8L912.1 238.5L901.4 283.4Z" fill="#C0C0C0"/>
<path d="M995.8 221.1V303.6H1035.3L1032.8 322.7H971.7V221.1H995.8Z" fill="#C0C0C0"/>
<path d="M1109.2 221.1L1106.9 239.6H1081.8V322.7H1057.8V239.6H1031.5V221.1H1109.2Z" fill="#C0C0C0"/>
<path d="M1187.8 221.1L1185.3 238.3H1149.5V262.6H1180.7V279.5H1149.5V305.4H1187.8V322.7H1125.5V221.1H1187.8Z" fill="#C0C0C0"/>
<path d="M1242.6 283.9H1233.2V322.7H1209.2V221.1H1242.5C1256.4 221.1 1266.8 223.6 1273.8 228.7C1280.8 233.8 1284.3 241.6 1284.3 252C1284.3 258.5 1282.7 264 1279.6 268.3C1276.5 272.6 1271.5 276.3 1264.8 279.4L1290.6 322.6H1263.5L1242.6 283.9ZM1233.2 267.3H1243.3C1248.7 267.3 1252.7 266.1 1255.4 263.6C1258.1 261.2 1259.4 257.3 1259.4 252C1259.4 247.1 1258 243.5 1255.1 241.3C1252.2 239.1 1247.8 237.9 1241.8 237.9H1233.2V267.3Z" fill="#C0C0C0"/>
<path d="M1329.9 182.6L1338.5 199.9L1303.3 212.7L1297.4 201L1329.9 182.6ZM1330.2 322.7H1306.2V221.1H1330.2V322.7Z" fill="#C0C0C0"/>
<path d="M1409.2 322.7L1403.9 300.9H1374.3L1369.2 322.7H1344.3L1374.9 221.1H1404.1L1434.7 322.7H1409.2ZM1378.5 283.4H1399.9L1389.2 238.5L1378.5 283.4Z" fill="#C0C0C0"/>
<path d="M709.4 469.3L701 480C689.7 469.9 680.9 466.7 662.7 466.7C637.9 466.7 620.8 448.8 620.8 415.1C620.8 381.8 638.1 362.6 663 362.6C688.1 362.6 705.2 380.9 705.2 414.9C705.2 440.3 696 453 681.6 460C693.1 460.1 702 463.9 709.4 469.3ZM663 456.4C680.6 456.4 691.7 444.4 691.7 414.9C691.7 385.4 680.7 373.1 663 373.1C645.7 373.1 634.3 385.4 634.3 415C634.3 444.4 646 456.4 663 456.4Z" fill="#C0C0C0"/>
<path d="M803.3 433.1C803.3 452.9 791 467 768.4 467C745.5 467 733.8 452.9 733.8 433.1V364.4H746.4V432.1C746.4 447.9 753.4 456.1 768.4 456.1C783.5 456.1 790.4 447.9 790.4 432.1V364.4H803.3V433.1Z" fill="#C0C0C0"/>
<path d="M851.2 364.4H838.6V465.2H851.2V364.4Z" fill="#C0C0C0"/>
<path d="M900.6 454.1H942.3L940.8 465.2H888V364.4H900.6V454.1Z" fill="#C0C0C0"/>
<path d="M1054.8 465.2H1042.5L1038.7 419C1037.2 403 1036.1 385.7 1035.9 377.2L1013.2 453.6H1001.3L977.6 377.1C977.5 388.5 976.6 404.8 975.3 419.8L971.8 465.2H959.8L968.3 364.4H985.6L1007.7 439L1028.8 364.4H1046.1L1054.8 465.2Z" fill="#C0C0C0"/>
<path d="M1138.1 374.6H1098.4V408.6H1132.8V418.9H1098.4V455H1140.6V465.2H1085.8V364.4H1139.5L1138.1 374.6Z" fill="#C0C0C0"/>
<path d="M1223.5 374.2L1216.6 382C1209 375.8 1201.9 373.2 1193.4 373.2C1182.7 373.2 1174.6 378.3 1174.6 388.2C1174.6 397.1 1178.9 401.4 1197 407C1213.6 412 1226.6 418.4 1226.6 437.3C1226.6 454.9 1213.4 467.1 1191.3 467.1C1176.9 467.1 1165.8 462.3 1157.4 454.2L1164.4 446.3C1172 452.6 1179.9 456.6 1191.1 456.6C1203.4 456.6 1213.4 450.3 1213.4 437.8C1213.4 427.4 1208.4 422.8 1191.1 417.6C1171.3 411.6 1161.5 404.1 1161.5 388.7C1161.5 373.6 1174.4 362.8 1192.7 362.8C1206.7 362.6 1215.3 366.7 1223.5 374.2Z" fill="#C0C0C0"/>
<path d="M385.1 450.3L402.8 453.6L404.5 428.6L383.2 430.4L385.1 450.3Z" fill="#C0C0C0"/>
<path d="M382 418.5L405 420.4L406.7 394.9L379.9 396.6L382 418.5Z" fill="#C0C0C0"/>
<path d="M412.5 421L437.7 423.2L440.7 392.7L410.7 394.6L412.5 421Z" fill="#C0C0C0"/>
<path d="M386.8 468.6C386.6 468.8 386.3 468.9 386.1 469.1C386.4 468.9 386.6 468.8 386.8 468.6Z" fill="#C0C0C0"/>
<path d="M105.5 425.3L107.1 451.8L125.1 454.2V423.7L105.5 425.3Z" fill="#C0C0C0"/>
<path d="M71.7999 417.9L98.3999 420L99.9999 392.6L69.7 394.6L71.7999 417.9Z" fill="#C0C0C0"/>
<path d="M125 391L103.5 392.4L105.2 420.6L125.1 422.2L125 391Z" fill="#C0C0C0"/>
<path d="M288.3 367.5C278.2 361.9 266.9 359 255.1 359C236.7 359 219.4 366.2 206.4 379.2C193.4 392.2 186.2 409.5 186.2 427.9C186.2 446.3 193.4 463.6 206.4 476.6C219.4 489.6 236.7 496.8 255.1 496.8C266.9 496.8 278.3 493.8 288.3 488.3C295.7 485 302.5 480.4 308.4 474.5C320.8 462.1 327.7 445.5 327.7 427.9C327.7 410.3 320.8 393.8 308.4 381.3C302.5 375.4 295.7 370.8 288.3 367.5ZM301.9 475C297.4 479.5 292.5 483.3 287.1 486.2C279.2 489.7 270.7 491.5 261.8 491.5C244.9 491.5 229.1 484.9 217.1 472.9C205.2 460.9 198.6 444.9 198.6 427.9C198.6 410.9 205.2 394.9 217.1 382.9C229 370.9 244.9 364.3 261.8 364.3C270.6 364.3 279.2 366.1 287.1 369.6C292.5 372.6 297.4 376.4 301.9 380.8C314.4 393.4 321.3 410.1 321.3 427.9C321.2 445.7 314.3 462.4 301.9 475Z" fill="#C0C0C0"/>
<path d="M281.4 389.7C280.2 388.9 278.9 388.3 277.7 387.6L277.6 387.8C271 384.2 263.5 382.2 255.7 382.2C243.5 382.2 232.1 386.9 223.4 395.6C214.8 404.2 210 415.7 210 427.9C210 440.1 214.7 451.5 223.4 460.2C232 468.8 243.5 473.6 255.7 473.6C263.5 473.6 271 471.7 277.7 468C282.6 465.8 287.1 462.8 291 458.9C299.2 450.7 303.8 439.7 303.8 428C303.8 416.3 299.3 405.4 291 397.1C288.1 394.1 284.9 391.7 281.4 389.7ZM260.3 386.5C260.4 386.5 260.4 386.5 260.3 386.5C266 386.5 271.4 387.6 276.4 389.8L266.4 407.2C264.5 406.3 262.4 405.6 260.3 405.2V386.5ZM258.5 408C261.2 408 263.8 408.6 266.2 409.6C267.8 410.5 269.4 411.7 270.7 413.1C273 415.5 274.7 418.4 275.7 421.5L260.8 423.9C260.2 423.4 259.6 423 258.8 422.8L253.5 408.6C255.2 408.2 256.8 408 258.5 408ZM255.1 386.8V404.8C254.1 404.8 253.2 405 252.2 405.1L251 401.8L251.4 405.3C250.4 405.5 249.4 405.8 248.5 406.1L240.2 391.8C244.8 389.2 249.9 387.5 255.1 386.8ZM231.4 398.6C232.8 397.2 234.3 395.9 235.9 394.7L243.9 408.5C242.5 409.4 241.2 410.4 240.1 411.6C239.6 412.1 239 412.7 238.6 413.3L225.8 405.9C227.2 403.2 229.2 400.8 231.4 398.6ZM223.1 410.4L235.6 417.6C234.5 419.8 233.7 422.3 233.4 424.8H219.4C219.8 419.7 221.1 414.9 223.1 410.4ZM222.8 444.6C220.8 440 219.6 435.1 219.4 430H233.3C233.5 432.6 234.2 435.1 235.2 437.4L222.8 444.6ZM231.4 457.2C229 454.8 226.9 452.1 225.2 449.2L237.9 441.8C238.5 442.6 239.2 443.5 240 444.2C241.1 445.3 242.2 446.2 243.4 447L235.5 460.7C234 459.7 232.7 458.5 231.4 457.2ZM255.1 469C249.6 468.3 244.4 466.5 239.7 463.7L247.9 449.5C250.2 450.4 252.6 450.9 255.1 451V469ZM244.8 442C241.1 438.2 239.1 433.2 239.1 427.9C239.1 422.6 241.1 417.6 244.8 413.8C246.8 411.7 249.2 410.1 251.9 409.2L253.7 424.1C252.7 425.1 252.1 426.4 252.1 427.9C252.1 430.8 254.5 433.2 257.4 433.2C259.8 433.2 261.9 431.5 262.5 429.3L276.5 424.3C276.7 425.5 276.8 426.7 276.8 428C276.8 433.6 274.7 438.8 270.9 442.8C269.5 444.2 268 445.4 266.4 446.3C264 447.4 261.4 447.9 258.7 447.9C253.3 447.8 248.5 445.7 244.8 442ZM276.9 465.9C271.8 468.1 266.2 469.3 260.5 469.3H260.4V450.7C262.7 450.3 264.9 449.6 267 448.5L276.9 465.9ZM286.5 458.6C284.9 460.2 283.2 461.7 281.3 463L271.4 445.9C272.4 445.2 273.3 444.4 274.2 443.6C275 442.8 275.7 442 276.3 441.1L292.7 450.6C291 453.4 288.9 456.1 286.5 458.6ZM295.2 446L278.9 436.6C279.8 434.5 280.4 432.3 280.6 430H299C298.8 435.6 297.5 441 295.2 446ZM299 424.8H280.5C280.4 424.2 280.3 423.5 280.1 422.9L290.5 419.1L279.5 420.9C279.2 420 278.9 419.2 278.5 418.4L294.8 409C297.2 413.9 298.6 419.2 299 424.8ZM275.8 414C275.3 413.4 274.8 412.8 274.2 412.3C273.2 411.3 272.1 410.4 271 409.7L280.9 392.6C282.9 394 284.7 395.6 286.5 397.4C288.7 399.6 290.6 402 292.3 404.6L275.8 414Z" fill="#C0C0C0"/>
<path d="M230.1 261.4H231.4C233.7 261.4 234.7 260.4 234.7 258V249.3C234.7 247.1 233.8 246.3 231.6 246.3H230C227.8 246.3 226.9 247.1 226.9 249.3V258C226.8 260.4 227.8 261.4 230.1 261.4Z" fill="#C0C0C0"/>
<path d="M229.8 285.7H231.8C234 285.7 234.8 284.9 234.8 282.7V272.5C234.8 270.2 233.9 269.3 231.5 269.3H230C227.6 269.3 226.7 270.2 226.7 272.5V282.7C226.8 284.9 227.6 285.7 229.8 285.7Z" fill="#C0C0C0"/>
<path d="M332.3 306.8L329.5 244.3V244.2L329.4 244.1L328.8 243.5C328.6 243.3 328.4 243.1 328.2 242.9C327.8 242.5 327.3 242.2 326.9 241.8C326 241.1 325 240.5 324.1 239.8C325 240.5 325.9 241.2 326.7 242C327.1 242.4 327.5 242.8 327.9 243.2C328.1 243.4 328.3 243.6 328.5 243.8L329 244.3L326.1 306.8H296.5H187.6V244.3L195.5 298.9H251.5L253.6 226C252.2 226 250.8 225.9 249.5 225.9C238.6 225.9 228.3 227 218.8 229.1C214.2 230.1 209.7 231.4 205.5 233C205.9 232.7 206.3 232.3 206.8 232C207.3 231.7 207.7 231.3 208.2 231L209.6 230C213.5 227.4 217.6 225.2 221.9 223.3C226.2 221.4 230.7 219.8 235.4 218.5C237.7 217.8 240 217.3 242.4 216.8C244.8 216.4 247.1 215.8 249.5 215.5C254.3 214.7 259.1 214.3 264 213.9L271.3 213.6C273.7 213.5 276.2 213.5 278.6 213.5C283.5 213.5 288.4 213.8 293.3 214.3C288.5 213.3 283.6 212.6 278.7 212.2C276.2 212 273.8 211.8 271.3 211.7L263.9 211.4C259 211.3 254 211.3 249 211.7C246.5 211.8 244 212.1 241.5 212.4C239 212.7 236.5 213.1 234.1 213.5C224.2 215.3 214.4 218.4 205.3 223.3L203.6 224.2C203 224.5 202.5 224.9 201.9 225.2C200.8 225.9 199.7 226.6 198.6 227.3C196.5 228.8 194.3 230.3 192.4 232.1C190.4 233.8 188.5 235.7 186.7 237.7C185.8 238.7 184.9 239.8 184.1 240.9L183.5 241.7L182.9 242.6C182.7 242.9 182.5 243.2 182.3 243.5L182 244L181.8 244.3L181.7 244.4L181.6 244.6L182.2 307H169.8V339.4H343V306.8H332.3ZM219.6 271.7C219.6 268.5 220.5 266.3 222.5 264.9C220.7 263.3 219.8 260.8 219.8 257.6V249.6C219.8 246.3 220.7 243.8 222.4 242C224.1 240.3 226.7 239.4 230 239.4H231.5C234.7 239.4 237.3 240.3 239 242C240.8 243.8 241.6 246.3 241.6 249.5V257.5C241.6 260.8 240.7 263.2 238.9 264.8C240.8 266.2 241.8 268.5 241.8 271.6V282.3C241.8 285.6 240.9 288.1 239.2 289.9C237.5 291.6 234.9 292.5 231.6 292.5H229.6C226.3 292.5 223.8 291.6 222 289.9C220.3 288.2 219.4 285.6 219.4 282.3V271.7H219.6ZM203.4 247.2L205.6 246.9C207.3 246.6 207.9 246.2 208.8 244.9L209.9 243.3H214.4V290.6H207.4V253.1H203.4V247.2ZM339.8 332.6L182.6 330V312.7L330 310.2H332.3L339.8 310.1V332.6Z" fill="#C0C0C0"/>
<path d="M302 285H303.9C306.1 285 306.8 284.4 306.8 282.5V251.4C306.8 249.6 306.1 249 303.9 249H302C299.8 249 299.1 249.6 299.1 251.4V282.5C299.2 284.4 299.9 285 302 285Z" fill="#C0C0C0"/>
<path d="M276.8 265.5C278.6 265.5 280.3 265 281.2 264.3V249.4C281.2 247.2 280.4 246.4 278.2 246.4H276.7C274.5 246.4 273.7 247.2 273.7 249.4V262.4C273.7 264.6 274.5 265.5 276.8 265.5Z" fill="#C0C0C0"/>
<path d="M259 298.9H319.1L321.2 245.1C319 243.3 314.7 240.2 308 237.1C294 230.6 274.9 226.8 256.2 226L259 298.9ZM292.8 252.4C292.8 249.4 293.6 247.1 295.2 245.5C296.8 243.9 299.2 243.1 302.1 243.1H303.9C306.9 243.1 309.2 243.9 310.8 245.5C312.4 247.1 313.2 249.4 313.2 252.4V281.6C313.2 284.6 312.4 286.9 310.8 288.5C309.2 290.1 306.9 290.9 303.9 290.9H302.1C299.1 290.9 296.7 290.1 295.1 288.5C293.5 286.9 292.7 284.6 292.7 281.5V252.4H292.8ZM266.5 249.5C266.5 246.2 267.4 243.7 269.1 242C270.8 240.3 273.4 239.4 276.7 239.4H278.2C281.4 239.4 284 240.3 285.7 242C287.5 243.7 288.3 246.3 288.3 249.5V282.4C288.3 285.7 287.4 288.2 285.7 290C284 291.7 281.4 292.6 278.1 292.6H276.6C273.3 292.6 270.7 291.8 269 290.1C267.3 288.4 266.4 285.9 266.4 282.7V274.8H273.5V282.7C273.5 284.9 274.3 285.7 276.5 285.7H278C280.2 285.7 281 284.9 281 282.7V271.5C279.4 272.1 277.7 272.4 276 272.4H275.7C269.9 272.4 266.4 268.9 266.4 263.1V249.5H266.5Z" fill="#C0C0C0"/>
<path d="M435.7 91.7C425.2 81.2 413.9 71.7 401.9 63.3V54.3H428.6V26H331.1C325.3 26 318.9 23.2 310.8 19.6C302.1 15.7 291.1 10.9 276.9 8.19997H277.7V0.0999756H231.7V8.19997H232.5C220.2 10.6 210.5 14.6 201.7 18.4C191.9 22.5 183.4 26.1 173.6 26.1H80.8V54.4H107.5V64.1C95.9 72.3 84.9 81.6 74.7 91.9C26.5 139.9 0 203.9 0 272.1C0 340.3 26.5 404.4 74.8 452.6C123 500.8 187.1 527.4 255.3 527.4C323.5 527.4 387.6 500.9 435.8 452.6C484 404.4 510.6 340.3 510.6 272.1C510.6 203.9 483.9 139.9 435.7 91.7ZM478.7 161.3C480.4 165 481.9 168.7 483.4 172.5L25.8 175.8C26.3 174.5 26.8 173.2 27.3 171.9L478.7 161.3ZM174.1 99.2C175.8 98.7 177.5 98.1 179.2 97.6L180 97.4L178.8 93.6C178.1 91.4 178.4 89.1 179.5 87.1C180.7 84.9 182.9 83.3 185.4 82.6C186.2 82.4 187 82.3 187.8 82.3C192 82.3 195.6 85.1 196.5 89L197.4 92.9C198.6 92.6 200.2 92.3 200.7 92.2C204.4 91.4 208.2 90.7 212 90.1L212.8 90L212.2 86.1C211.8 83.9 212.4 81.6 213.7 79.7C215.2 77.7 217.4 76.4 220 76C220.4 75.9 220.8 75.9 221.3 75.9C226 75.9 229.8 79.3 230.2 83.7L230.6 87.6C231.8 87.5 233.5 87.3 234 87.3C237.4 87 240.9 86.8 244.3 86.6L246.3 86.5L246.1 82.5C246 80.2 246.8 78 248.4 76.3C250.1 74.5 252.5 73.5 255.2 73.4C257.8 73.4 260.2 74.4 261.9 76.2C263.5 77.9 264.4 80.1 264.3 82.3L264.2 86.3C265.4 86.3 267.1 86.4 267.6 86.4C271.1 86.5 274.5 86.7 277.9 87L279.9 87.2L280.2 83.2C280.5 78.8 284.5 75.3 289.1 75.3C289.5 75.3 289.9 75.3 290.3 75.4C292.9 75.7 295.1 77 296.7 79C298.1 80.9 298.7 83.1 298.3 85.4L297.7 89.3C298.9 89.5 300.5 89.7 301 89.8C304.4 90.4 307.9 91 311.2 91.7L313.1 92.1L313.9 88.2C314.7 84.2 318.3 81.4 322.6 81.4C323.4 81.4 324.2 81.5 324.9 81.7C327.4 82.3 329.6 83.9 330.8 86.1C332 88.1 332.3 90.5 331.6 92.6L330.5 96.4C331.7 96.7 333.3 97.2 333.8 97.3C335.7 97.9 337.6 98.4 339.4 99V154.7L174.1 154.8V99.2ZM475.8 155.1L402 155V65.7C433.1 89 458.6 119.7 475.8 155.1ZM206.2 33.2C218.9 27.8 232.7 15.9 254.7 15.9C278.4 15.9 294.2 22.9 306.8 28.5C315.6 32.4 323.2 35.8 331.1 35.8H418.7V44.3H394.8H393.8V49.3V155.1H373.1L368.5 82.4V81.9L368.2 81.7C364 78.5 359.5 75.8 355 73.4C359.1 76.3 363.1 79.4 366.6 82.9L362 155.2H348.5V94.1H348.4V94L347.6 93.7C345.5 93 343.4 92.3 341.3 91.6L340.3 91.3V90.3C340.2 82.8 334.7 76.2 326.9 74.3C325.4 73.9 323.9 73.8 322.5 73.8C316.9 73.8 311.7 76.4 308.6 80.8L306.8 83.4L306 80.4C304.3 73.8 298.4 68.8 291.2 67.9C290.5 67.8 289.7 67.8 289 67.8C282.5 67.8 276.7 71.2 273.9 76.6L272.4 79.4L271.3 76.5C268.8 70.2 262.3 66 255.1 66C247.9 66 241.4 70.3 239 76.7L237.9 79.7L236.4 76.9C233.5 71.6 227.8 68.3 221.4 68.3C220.6 68.3 219.8 68.4 219 68.5C211.8 69.4 205.9 74.5 204.3 81.1L203.6 84.2L201.8 81.6C198.8 77.3 193.6 74.8 188 74.8C186.5 74.8 184.9 75 183.4 75.4C175.6 77.4 170.2 84 170.2 91.5V92.5L169.2 92.8C168.1 93.1 167.1 93.5 166 93.9L165.2 94.2V94.3H165.1V154.8H151L149.4 84.1C154.3 79.9 159.9 76.1 165.8 72.9C172.2 69.3 179 66.2 186 63.6C200 58.4 214.7 55 229.6 53C237.1 52 244.6 51.4 252.1 51.1C259.6 50.8 267.2 50.8 274.8 51.2C289.9 52 305 54.1 319.7 58C305.2 53.4 290.2 50.5 275 49.1C267.4 48.4 259.8 48 252.1 48C244.5 47.9 236.8 48.2 229.2 48.8C213.9 50.1 198.7 52.9 184 57.6C176.6 60 169.4 62.9 162.4 66.4C155.4 69.9 148.7 73.9 142.4 79.1L141 80.2V82.2L139.4 154.8H122.2L116.4 44.2L173.5 41.4C185.4 41.4 195.9 37.6 206.2 33.2ZM107.6 66.4V154.8L35.5 154.7C32.7 159.3 30 166.2 27.6 171.2C44.3 129.3 72.2 93.2 107.6 66.4ZM35.8 371C36.1 371.6 36.4 372.1 36.7 372.7C36.4 372.2 36.1 371.6 35.8 371ZM39.4 378C40.6 380.2 41.8 382.5 43.1 384.7C41.8 382.4 40.6 380.2 39.4 378ZM74.9 427.8C75.3 428.2 75.7 428.6 76.1 429.1C75.6 428.6 75.3 428.2 74.9 427.8ZM78.8 431.9C79.2 432.3 79.6 432.7 80 433.2C79.6 432.8 79.2 432.3 78.8 431.9ZM80.2 433.4C80.6 433.8 80.9 434.1 81.3 434.5C80.9 434.1 80.5 433.7 80.2 433.4ZM81.5 434.7C81.8 435 82.2 435.4 82.5 435.7C82.2 435.4 81.9 435.1 81.5 434.7ZM82.8 436C83.7 436.8 84.5 437.7 85.4 438.5C84.5 437.7 83.6 436.8 82.8 436ZM86.8 439.9C88.1 441.2 89.5 442.4 90.9 443.7C89.5 442.4 88.2 441.2 86.8 439.9ZM91 443.7C92.9 445.4 94.7 447 96.6 448.6C94.7 447 92.8 445.4 91 443.7ZM115.2 463C118.5 465.3 121.8 467.5 125.2 469.6C121.7 467.5 118.4 465.2 115.2 463ZM137.6 476.9C138.3 477.3 139 477.7 139.8 478.1L135.5 375.4V375.3L135.4 375.2L134.8 374.6C134.6 374.4 134.4 374.2 134.2 374C133.8 373.6 133.3 373.3 132.9 372.9C132 372.2 131 371.6 130.1 370.9C131 371.6 131.9 372.3 132.7 373.1C133.1 373.5 133.5 373.9 133.9 374.3C134.1 374.5 134.3 374.7 134.5 374.9L135 375.4L134.3 390.3L130.7 472.8C128.8 471.7 127 470.6 125.2 469.4V456.5L109.4 458.6C105 455.4 100.8 452 96.7 448.5L98.1 425.7L75 427.6C70.8 423 66.8 418.3 62.9 413.4L64.5 394.7L50 395.8C53.5 401.2 57.2 406.4 61.1 411.4C54.5 402.9 48.5 393.9 43.1 384.6L65.2 386L67.1 364.4L69 386.2L100.3 388.2L101.8 364.4L103.3 388.4L125 389.8V375.3C123.5 374.4 108.9 361 81.6 360.3C68.9 359.9 55.3 362.1 46.9 364.4C47.4 364 47.8 363.7 48.3 363.3C48.6 363 49 362.8 49.3 362.5L50.4 361.8C53.2 359.9 56.3 358.2 59.5 356.8C62.7 355.4 66 354.2 69.4 353.3C71.1 352.8 72.8 352.4 74.5 352C76.2 351.7 78 351.3 79.7 351C83.2 350.4 86.8 350.1 90.4 349.8L95.8 349.5C97.6 349.4 99.4 349.4 101.2 349.4C104.8 349.4 108.4 349.6 112 350C108.5 349.3 104.9 348.8 101.3 348.4C99.5 348.2 97.7 348.1 95.9 348L90.5 347.8C86.9 347.7 83.2 347.7 79.5 348C77.7 348.1 75.8 348.3 74 348.5C72.2 348.8 70.3 349 68.5 349.3C61.2 350.6 54 352.9 47.3 356.5L46 357.2C45.6 357.4 45.2 357.7 44.8 357.9C44 358.4 43.2 358.9 42.4 359.5C40.8 360.6 39.3 361.7 37.8 363C36.4 364.2 35.1 365.5 33.8 366.9C34.1 367.5 34.4 368.2 34.7 368.8C19 336.4 10.1 300.1 10.1 261.7C10.1 232.4 15.2 204.3 24.7 178.3L487.2 183C495.6 207.7 500.1 234.2 500.1 261.7C500.1 307.5 487.5 350.4 465.7 387C466.2 386.2 466.7 385.4 467.1 384.6V375.1C465.6 374.2 451 360.8 423.7 360.1C411 359.7 397.4 361.9 389 364.2C389.5 363.8 389.9 363.5 390.4 363.1C390.7 362.8 391.1 362.6 391.4 362.3L392.5 361.6C395.3 359.7 398.4 358 401.6 356.6C404.8 355.2 408.1 354 411.5 353.1C413.2 352.6 414.9 352.2 416.6 351.8C418.3 351.5 420.1 351.1 421.8 350.8C425.3 350.2 428.9 349.9 432.5 349.6L437.9 349.3C439.7 349.2 441.5 349.2 443.3 349.2C446.9 349.2 450.5 349.4 454.1 349.8C450.6 349.1 447 348.6 443.4 348.2C441.6 348 439.8 347.9 438 347.8L432.6 347.6C429 347.5 425.3 347.5 421.6 347.8C419.8 347.9 417.9 348.1 416.1 348.3C414.3 348.6 412.4 348.8 410.6 349.1C403.3 350.4 396.1 352.7 389.4 356.3L388.1 357C387.7 357.2 387.3 357.5 386.9 357.7C386.1 358.2 385.3 358.7 384.5 359.3C382.9 360.4 381.4 361.5 379.9 362.8C378.4 364.1 377 365.4 375.7 366.9C375 367.6 374.4 368.4 373.8 369.2L373.3 369.8L372.9 370.4C372.8 370.6 372.6 370.8 372.5 371.1L372.3 371.5L372.2 371.7L372.1 371.8L372 372L372.4 476.6C337.6 495.6 297.6 506.4 255.1 506.4C212.6 506.9 172.5 496.1 137.6 476.9ZM130.6 472.9C131.3 473.3 132 473.7 132.7 474.1C132.1 473.8 131.3 473.4 130.6 472.9ZM448.1 413C444.2 417.9 440.2 422.7 436 427.3C436.4 426.8 436.9 426.3 437.3 425.9L412.9 428L414.2 448.4C414.7 448 415.2 447.5 415.7 447.1C411.4 450.8 407 454.4 402.5 457.8V457.4L386 460.5L386.8 468.7C388.5 467.6 390.1 466.5 391.8 465.4C389.6 466.9 387.4 468.3 385.2 469.7C382.8 471.2 380.3 472.7 377.8 474.1C377.6 474.2 377.4 474.3 377.3 474.4C377.4 474.3 377.6 474.2 377.7 474.2C377.6 474.3 377.4 474.4 377.3 474.4V372.4L378.7 384.2L407.3 386L408.7 364.4L410.1 386.2L441 388.2L443.3 364.4L445.6 388.4L464.2 389.6C462.7 392 461.2 394.4 459.7 396.7C460.9 394.9 462.1 393 463.3 391.2L446.1 392.3L448.1 413ZM459.7 396.9C459.4 397.3 459.2 397.7 458.9 398.1C459.2 397.7 459.5 397.3 459.7 396.9ZM457.9 399.7C457.6 400.1 457.4 400.5 457.1 400.9C457.3 400.5 457.6 400.1 457.9 399.7ZM457 401C455.8 402.8 454.5 404.6 453.2 406.4C454.4 404.6 455.7 402.8 457 401ZM452.1 407.8C451.8 408.2 451.5 408.5 451.3 408.9C451.5 408.6 451.8 408.2 452.1 407.8ZM451.1 409.2C450.8 409.6 450.6 409.9 450.3 410.3C450.5 409.9 450.8 409.5 451.1 409.2ZM450.1 410.5C449.8 410.9 449.5 411.2 449.2 411.6C449.5 411.2 449.8 410.8 450.1 410.5ZM449.1 411.7C448.8 412.1 448.5 412.5 448.1 413C448.5 412.6 448.8 412.2 449.1 411.7ZM402.6 457.7C399.8 459.8 397 461.9 394.1 463.9C396.9 461.9 399.8 459.8 402.6 457.7ZM377.3 474.4C376.5 474.8 375.7 475.3 375 475.7C375.7 475.3 376.5 474.9 377.3 474.4ZM415.9 446.9C416.4 446.5 416.8 446.1 417.3 445.7C416.8 446.1 416.3 446.5 415.9 446.9ZM417.4 445.6C418.4 444.8 419.3 443.9 420.3 443C419.3 443.9 418.4 444.7 417.4 445.6ZM420.4 442.9C420.8 442.5 421.3 442.1 421.7 441.7C421.3 442.1 420.9 442.5 420.4 442.9ZM421.9 441.6C422.8 440.7 423.8 439.8 424.7 438.9C423.7 439.8 422.8 440.7 421.9 441.6ZM424.8 438.8C425.3 438.4 425.7 437.9 426.2 437.5C425.7 437.9 425.3 438.3 424.8 438.8ZM433.3 430.2C434.2 429.2 435.1 428.3 436 427.3C435.1 428.3 434.2 429.3 433.3 430.2ZM429.1 434.5C430 433.6 430.9 432.6 431.8 431.7C430.9 432.7 430 433.6 429.1 434.5Z" fill="#C0C0C0"/>
<path d="M291.9 139.5L293.2 128L270.3 129.5L272.5 139.6L291.9 139.5Z" fill="#C0C0C0"/>
<path d="M320.3 139.5V126.1L298.2 127.6L299.5 139.5H320.3Z" fill="#C0C0C0"/>
<path d="M326.4 120.1L326.3 120L325.9 119.7C325.8 119.6 325.7 119.5 325.5 119.4C325.2 119.2 325 119 324.7 118.8C324.2 118.4 323.6 118 323 117.7C323.5 118.1 324 118.5 324.5 119C324.7 119.2 325 119.5 325.2 119.7C325.3 119.8 325.4 119.9 325.5 120.1L325.8 120.4L323.9 143.6H267.6V118.6L268.7 123.9L293.2 125L294.7 111.5C294.6 111.5 294.6 111.5 294.5 111.5C287.1 111.3 279.1 112.5 274.2 113.9C274.5 113.7 274.7 113.5 275 113.3C275.2 113.2 275.4 113 275.6 112.9L276.2 112.5C277.9 111.4 279.7 110.4 281.5 109.6C283.4 108.8 285.3 108.1 287.3 107.5C288.3 107.2 289.3 107 290.3 106.7C291.3 106.5 292.3 106.3 293.4 106.1C295.5 105.8 297.5 105.6 299.6 105.4L302.8 105.3C303.9 105.3 304.9 105.2 306 105.2C308.1 105.2 310.2 105.3 312.3 105.5C310.2 105.1 308.1 104.8 306 104.6C304.9 104.5 303.9 104.4 302.8 104.4L299.6 104.3C297.5 104.3 295.3 104.3 293.2 104.4C292.1 104.4 291.1 104.6 290 104.7C288.9 104.9 287.9 105 286.8 105.2C282.5 106 278.3 107.3 274.4 109.4L273.7 109.8C273.5 109.9 273.2 110.1 273 110.2C272.5 110.5 272.1 110.8 271.6 111.1C270.7 111.7 269.8 112.4 268.9 113.2C268 113.9 267.2 114.7 266.4 115.6C266 116 265.6 116.5 265.3 117L265 117.4L264.7 117.8C264.6 117.9 264.5 118.1 264.4 118.2L264.3 118.4L264.2 118.5V118.6V118.7L264.5 146.9H323.7H323.9H328.1L328 144.8L326.4 120.1Z" fill="#C0C0C0"/>
<path d="M297.9 124.9L320.3 125.9V119.9C319.5 119.4 311.4 112 296.3 111.2L297.9 124.9Z" fill="#C0C0C0"/>
<path d="M61.4 310.5L62.9 291.9L42.4 293.2L44.8 310.9L61.4 310.5Z" fill="#C0C0C0"/>
<path d="M96.2001 309.6L97.7001 289.7L71.3 291.4L72.7001 310.2L96.2001 309.6Z" fill="#C0C0C0"/>
<path d="M64.9 265.7L39 267.3L40.8 281.4L63.6 282.9L64.9 265.7Z" fill="#C0C0C0"/>
<path d="M125 308.8V288L105.8 289.2L107.3 309.3L125 308.8Z" fill="#C0C0C0"/>
<path d="M125 261.8L103.8 263.2L105.5 285.5L125 286.8V261.8Z" fill="#C0C0C0"/>
<path d="M99.7001 263.4L69.3 265.4L70.6001 283.3L98.1001 285.1L99.7001 263.4Z" fill="#C0C0C0"/>
<path d="M135.5 248V247.9L135.4 247.8L134.8 247.2C134.6 247 134.4 246.8 134.2 246.6C133.8 246.2 133.3 245.9 132.9 245.5C132 244.8 131 244.2 130.1 243.5C131 244.2 131.9 244.9 132.7 245.7C133.1 246.1 133.5 246.5 133.9 246.9C134.1 247.1 134.3 247.3 134.5 247.5L135 248L131.8 319.2H35.7V245L37.4 254.9L65.7 256.7L67.2 237L68.7 256.9L100.2 258.9L101.9 237L103.6 259.2L125.2 260.6V247.9C123.7 247 109.1 233.6 81.8 232.9C69.1 232.5 55.5 234.7 47.1 237C47.6 236.6 48 236.3 48.5 235.9C48.8 235.6 49.2 235.4 49.5 235.1L50.6 234.4C53.4 232.5 56.5 230.8 59.7 229.4C62.9 228 66.2 226.8 69.6 225.9C71.3 225.4 73 225 74.7 224.6C76.4 224.3 78.2 223.9 79.9 223.6C83.4 223 87 222.7 90.6 222.4L96 222.1C97.8 222 99.6 222 101.4 222C105 222 108.6 222.2 112.2 222.6C108.7 221.9 105.1 221.4 101.5 221C99.7 220.8 97.9 220.7 96.1 220.6L90.7 220.4C87.1 220.3 83.4 220.3 79.7 220.6C77.9 220.7 76 220.9 74.2 221.1C72.4 221.4 70.5 221.6 68.7 221.9C61.4 223.2 54.2 225.5 47.5 229.1L46.2 229.8C45.8 230 45.4 230.3 45 230.5C44.2 231 43.4 231.5 42.6 232.1C41 233.2 39.5 234.3 38 235.6C36.5 236.9 35.1 238.2 33.8 239.7C33.1 240.4 32.5 241.2 31.9 242L31.4 242.6L31 243.2C30.9 243.4 30.7 243.6 30.6 243.9L30.4 244.3L30.3 244.5L30.2 244.6L30.1 244.8L30.5 324.4H131.6H131.9H139L138.8 320.8L135.5 248Z" fill="#C0C0C0"/>
<path d="M214.3 139.5L215.6 128L192.7 129.5L194.8 139.6L214.3 139.5Z" fill="#C0C0C0"/>
<path d="M242.6 139.5V126.1L220.5 127.6L221.8 139.5H242.6Z" fill="#C0C0C0"/>
<path d="M248.8 120.1L248.7 120L248.3 119.7C248.2 119.6 248.1 119.5 247.9 119.4C247.6 119.2 247.4 119 247.1 118.8C246.6 118.4 246 118 245.4 117.7C245.9 118.1 246.4 118.5 246.9 119C247.1 119.2 247.4 119.5 247.6 119.7C247.7 119.8 247.8 119.9 247.9 120.1L248.2 120.4L246.3 143.6H190V118.6L191.1 123.9L215.6 125L217.1 111.5C217 111.5 217 111.5 216.9 111.5C209.5 111.3 201.5 112.5 196.6 113.9C196.9 113.7 197.1 113.5 197.4 113.3C197.6 113.2 197.8 113 198 112.9L198.6 112.5C200.3 111.4 202.1 110.4 203.9 109.6C205.8 108.8 207.7 108.1 209.7 107.5C210.7 107.2 211.7 107 212.7 106.7C213.7 106.5 214.7 106.3 215.8 106.1C217.9 105.8 219.9 105.6 222 105.4L225.2 105.3C226.3 105.3 227.3 105.2 228.4 105.2C230.5 105.2 232.6 105.3 234.7 105.5C232.6 105.1 230.5 104.8 228.4 104.6C227.3 104.5 226.3 104.4 225.2 104.4L222 104.3C219.9 104.3 217.7 104.3 215.6 104.4C214.5 104.4 213.5 104.6 212.4 104.7C211.3 104.9 210.3 105 209.2 105.2C204.9 106 200.7 107.3 196.8 109.4L196.1 109.8C195.9 109.9 195.6 110.1 195.4 110.2C194.9 110.5 194.5 110.8 194 111.1C193.1 111.7 192.2 112.4 191.3 113.2C190.4 113.9 189.6 114.7 188.8 115.6C188.4 116 188 116.5 187.7 117L187.4 117.4L187.1 117.8C187 117.9 186.9 118.1 186.8 118.2L186.7 118.4L186.6 118.5V118.6V118.7L186.9 146.9H246.1H246.3H250.5L250.4 144.8L248.8 120.1Z" fill="#C0C0C0"/>
<path d="M242.6 120C241.8 119.5 233.7 112.1 218.6 111.3L220.1 125L242.5 126V120H242.6Z" fill="#C0C0C0"/>
<path d="M403.6 310.5L405.1 291.9L384.6 293.2L387 310.9L403.6 310.5Z" fill="#C0C0C0"/>
<path d="M438.4 309.6L439.9 289.7L413.5 291.4L414.9 310.2L438.4 309.6Z" fill="#C0C0C0"/>
<path d="M407.1 265.7L381.2 267.3L383 281.4L405.8 282.9L407.1 265.7Z" fill="#C0C0C0"/>
<path d="M467.2 308.8V288L448 289.2L449.5 309.3L467.2 308.8Z" fill="#C0C0C0"/>
<path d="M467.2 261.8L446 263.2L447.7 285.5L467.2 286.8V261.8Z" fill="#C0C0C0"/>
<path d="M441.9 263.4L411.5 265.4L412.9 283.3L440.3 285.1L441.9 263.4Z" fill="#C0C0C0"/>
<path d="M473.7 324.8H474H481.1L480.9 321.2L477.6 248V247.9L477.5 247.8L476.9 247.2C476.7 247 476.5 246.8 476.3 246.6C475.9 246.2 475.4 245.9 475 245.5C474.1 244.8 473.1 244.2 472.2 243.5C473.1 244.2 474 244.9 474.8 245.7C475.2 246.1 475.6 246.5 476 246.9C476.2 247.1 476.4 247.3 476.6 247.5L477.1 248L473.9 319.2H377.8V245.1L379.5 255L407.8 256.8L409.3 237.1L410.8 257L442.3 259L444 237.1L445.7 259.3L467.3 260.7V247.9C465.8 247 451.2 233.6 423.9 232.9C411.2 232.5 397.6 234.7 389.2 237C389.7 236.6 390.1 236.3 390.6 235.9C390.9 235.6 391.3 235.4 391.6 235.1L392.7 234.4C395.5 232.5 398.6 230.8 401.8 229.4C405 228 408.3 226.8 411.7 225.9C413.4 225.4 415.1 225 416.8 224.6C418.5 224.3 420.3 223.9 422 223.6C425.5 223 429.1 222.7 432.7 222.4L438.1 222.1C439.9 222 441.7 222 443.5 222C447.1 222 450.7 222.2 454.3 222.6C450.8 221.9 447.2 221.4 443.6 221C441.8 220.8 440 220.7 438.2 220.6L432.8 220.4C429.2 220.3 425.5 220.3 421.8 220.6C420 220.7 418.1 220.9 416.3 221.1C414.5 221.4 412.6 221.6 410.8 221.9C403.5 223.2 396.3 225.5 389.6 229.1L388.3 229.8C387.9 230 387.5 230.3 387.1 230.5C386.3 231 385.5 231.5 384.7 232.1C383.1 233.2 381.6 234.3 380.1 235.6C378.6 236.9 377.2 238.2 375.9 239.7C375.2 240.4 374.6 241.2 374 242L373.5 242.6L373.1 243.2C373 243.4 372.8 243.6 372.7 243.9L372.5 244.3L372.4 244.5L372.3 244.6L372.2 244.8L372.6 324.4H473.7V324.8Z" fill="#C0C0C0"/>
</g>
</g>
</g>
<defs>
<clipPath id="clip0_148_87">
<rect width="1465" height="528" fill="white"/>
</clipPath>
</defs>
</svg>
