<svg width="180" height="56" viewBox="0 0 180 56" fill="none" xmlns="http://www.w3.org/2000/svg">
<g clip-path="url(#clip0_148_62)">
<mask id="mask0_148_62" style="mask-type:luminance" maskUnits="userSpaceOnUse" x="0" y="0" width="180" height="56">
<path d="M180 0H0V56H180V0Z" fill="white"/>
</mask>
<g mask="url(#mask0_148_62)">
<mask id="mask1_148_62" style="mask-type:luminance" maskUnits="userSpaceOnUse" x="0" y="0" width="180" height="56">
<path d="M180 0H0V56H180V0Z" fill="white"/>
</mask>
<g mask="url(#mask1_148_62)">
<path d="M108.42 15.7599V15.6399C120.4 9.69995 122.74 5.38995 122.79 3.73995C122.85 1.59995 120.2 0.229946 115.43 0.00994588C113.31 -0.0500541 111.9 0.0199459 108.51 0.459946L105.65 0.969946C100.72 1.84995 95.05 4.43995 94.45 5.85995C94.29 6.23995 94.22 7.15995 94.54 7.37995C95.31 7.91995 97.18 5.46995 103.63 4.07995L105.01 3.77995H105.13C101.69 10.9499 89.47 37.3599 93.71 37.2799C94.12 37.2699 94.13 36.8899 95.53 36.4399C96.37 36.1699 96.69 35.3899 96.8 34.7299C97.53 30.0099 101.96 13.7099 107.11 3.51995L107.44 3.47995C111.59 2.84995 114.93 3.03995 117.37 4.10995C118.53 4.62995 119.08 5.07995 119.03 6.23995C118.93 8.33995 111.45 12.2699 108.69 13.8599C107.06 14.7899 103.87 16.4799 103.85 17.3799C103.82 18.2799 106.32 19.5799 107.77 20.2699C110.54 21.5199 112.96 23.1099 114.66 24.7599C115.99 26.0899 116.58 27.5799 116.53 29.3799C116.46 31.6399 115.38 33.3299 112.08 33.8499C108.46 34.4199 101.68 33.4299 99.8 29.5199C99.73 29.3799 99.54 29.3699 99.47 29.4999C98.87 30.5599 97.11 34.0499 99.35 35.5499C100.35 36.2299 101.59 36.5999 102.51 36.7999C104.94 37.3199 107.05 37.1699 109.53 36.7099C111.25 36.4099 115.47 34.7999 117.77 32.4399C119.33 30.8399 120.13 28.9299 120.19 27.1199C120.38 20.2499 109.04 15.9199 108.44 15.7499L108.42 15.7599Z" fill="#C0C0C0"/>
<path d="M179.84 36.1901C179.28 35.8801 177.02 34.0701 177.64 25.1101C177.87 21.8401 176.7 21.3601 172.4 23.2301C169.65 24.4201 166.81 26.9401 164.97 29.7001C163.3 32.1901 155.33 36.1801 154.2 32.8501C153.92 32.0401 153.99 25.9001 162.43 23.6201C163.29 23.3801 163.37 22.9501 162.74 22.3401C162.49 22.0901 161.98 21.8001 161.53 21.7301C160.86 21.6101 159.05 22.2901 157.88 22.8701C155.33 24.1201 153.16 26.3001 150.6 29.9001C149.86 30.9501 148.49 31.9701 147.36 32.7001C146.66 33.1301 145.35 33.8201 145.35 33.8201C147.5 31.2301 148.13 25.7501 147.27 22.5901C146.99 21.5801 145.35 20.6401 144.6 20.8101C144.43 20.8501 144.03 21.0001 142.76 22.1701C142.27 22.6201 139.43 26.6001 134.92 27.4201C134.93 27.3601 134.94 27.2901 134.94 27.2201C134.94 26.5101 134.66 25.8801 134.14 25.4501C133.7 25.0801 133.18 24.9001 132.52 24.9701C131.73 25.0501 130.73 25.5001 130.41 26.6201C130.09 27.7301 130.78 29.1301 131.61 29.1601C131.76 29.7601 131.02 31.5001 130.57 32.2801C129.73 33.7401 128.36 34.8501 126.91 34.8601C124.18 34.8701 124.84 30.5301 126.44 27.9901C127.65 26.0901 129.46 24.2601 131.83 24.0401C132.38 23.9901 132.96 24.0101 133.57 24.1201C133.73 24.1501 133.87 23.9901 133.82 23.8301C133.58 23.1501 132.76 21.7301 130.08 21.8601C125.72 22.0601 122.04 27.5601 121.65 31.6701C121.38 34.5101 123.67 37.3301 127.02 37.0201C130.65 36.6901 133.98 32.6101 134.74 28.9801C139.65 28.0201 143.35 24.1801 143.35 24.1801C144.92 24.3101 143.73 31.0401 141.73 33.2401C139.36 35.8601 136.58 32.0601 138.07 36.0101C138.47 37.0601 142.69 37.8601 149.04 33.8801C149.49 33.6201 149.94 33.3401 150.41 33.0401C151.37 39.5101 159.33 36.2601 162.83 33.4701C162.92 33.4101 163.5 32.9801 163.6 32.9101C162.52 37.3801 166.54 37.4901 169.37 36.1601C171.24 35.2701 172.68 33.7901 174.2 31.8701C175.95 38.6301 179.27 36.8901 179.88 36.3601C179.92 36.3201 179.91 36.2301 179.85 36.2001L179.84 36.1901ZM173.66 28.8301C172.92 31.4601 171.04 33.6301 169.29 34.2101C167.74 34.7301 166.59 34.0301 167.13 31.7901C167.65 29.6301 168.49 28.6201 169.91 27.0601C171.65 25.1701 173.33 24.2401 173.56 24.3801C174.2 24.7601 173.87 28.0201 173.65 28.8201L173.66 28.8301Z" fill="#C0C0C0"/>
<path d="M55.93 19.22C57 19.6 58.25 18.81 58.71 17.47C59.17 16.13 58.69 14.74 57.62 14.38C56.55 14 55.3 14.79 54.84 16.13C54.37 17.47 54.85 18.86 55.93 19.22Z" fill="#C0C0C0"/>
<path d="M85.2099 15.04C84.1199 14.84 83.0399 15.74 82.8099 17.04C82.5699 18.34 83.2499 19.57 84.3399 19.76C85.4299 19.96 86.5099 19.06 86.7399 17.76C86.9899 16.46 86.2999 15.23 85.2099 15.04Z" fill="#C0C0C0"/>
<path d="M85.84 23.8C85.42 23.68 82.1 23.53 81.27 25.36C80.56 26.94 77.61 31.61 73.24 35.28V35.3C72.92 35.59 72.57 35.9 72.29 36.11C72.38 35.84 74.62 29.76 74.62 28.86C74.62 27.75 72.77 25.27 71.37 29.15C70.55 30.47 68.34 34.47 66.18 34.83C63.07 35.36 66.61 23.65 70.57 23.31C72.01 23.18 71.07 25.34 71.82 25.8C73.06 26.55 73.95 24.76 73.95 24.76C73.76 19.56 63.05 20.85 61.29 32.01V32.07C61.2 32.19 61.1 32.33 60.97 32.48C59.2 34.45 52.85 37.96 57.66 24.27C57.56 23.09 54.08 23.15 53.2 24.83C48.44 33.88 42.45 37.79 46.12 25.23C46.71 23.2 44.65 22.51 42.55 23.69C41.47 24.29 38.38 35.55 34.87 34.89C30.71 34.11 37.61 23.66 35.88 22.63C35.36 22.32 32.57 22.54 31.8 24.17C30.51 26.89 29.98 29.37 30 31.42C28.35 31.16 19.48 31.04 15.8 31.45C21.57 22.65 28.24 7.27999 28.46 4.35999C28.72 0.899989 24.37 1.33999 24.37 1.33999C24.37 1.33999 19.96 20.06 13.5 31.68H13.6C13.6 31.68 13.6 31.68 13.59 31.68C10.43 32.05 7.19999 32.54 4.21999 33.68C2.83999 34.21 1.28999 34.94 0.459994 36.21C-6.94394e-06 36.92 -0.130006 37.75 0.139994 38.53C0.979994 40.94 4.19999 41.68 6.46999 41.13C8.09999 40.73 9.47999 39.7 10.64 38.54C12.1 37.09 13.29 35.39 14.4 33.67C20.2 33.7 31.82 36.6 31.51 36.01C33.87 38.57 38.55 36.97 42.14 27.85C42.08 29.67 40.45 35.78 42.14 36.55C44.48 37.62 49.84 33.25 52.18 29.9C51.51 38.59 56.71 38.86 60.96 34.22C61.01 34.16 61.07 34.1 61.12 34.05V34.11C61.26 38.41 65.42 37.87 68.04 35.28C68.62 34.71 69.34 33.8 70.08 32.79C69.67 34.06 69.1 36.63 68.6 38C68.59 38 68.58 38.01 68.58 38.02C66.47 38.89 54.63 43.95 53.32 49.34C51.88 55.35 58.18 55.95 58.18 55.95C58.18 55.95 58.16 55.94 58.16 55.93C58.51 55.99 58.86 56.02 59.23 55.98C66.61 55.3 69.18 44.63 71.93 37.89C72.36 37.52 72.93 37.02 73.35 36.72C77.04 34 80.06 30.43 80.41 29.89C80.72 34.46 83.89 36.62 84.64 37.06C85.05 37.3 87.07 36.37 86.7 36.06C82.41 32.35 86.85 24.1 85.83 23.8H85.84ZM2.34999 36.52C3.91999 34.05 8.42999 33.94 12.23 33.72C7.08999 41.69 0.529993 39.38 2.34999 36.52ZM64.21 49.76C61.68 54.62 58.7 55.2 57.02 53.79C54.82 51.94 56.75 47.68 59.81 45.32C62.55 43.21 65.42 41.06 68.3 39.75C67.39 42.19 65.82 46.67 64.21 49.75V49.76Z" fill="#C0C0C0"/>
</g>
</g>
</g>
<defs>
<clipPath id="clip0_148_62">
<rect width="180" height="56" fill="white"/>
</clipPath>
</defs>
</svg>
