<svg width="1928" height="408" viewBox="0 0 1928 408" fill="none" xmlns="http://www.w3.org/2000/svg">
<g clip-path="url(#clip0_148_18)">
<mask id="mask0_148_18" style="mask-type:luminance" maskUnits="userSpaceOnUse" x="0" y="0" width="1928" height="408">
<path d="M1928 0H0V408H1928V0Z" fill="white"/>
</mask>
<g mask="url(#mask0_148_18)">
<mask id="mask1_148_18" style="mask-type:luminance" maskUnits="userSpaceOnUse" x="0" y="0" width="1928" height="408">
<path d="M1928 0H0V408H1928V0Z" fill="white"/>
</mask>
<g mask="url(#mask1_148_18)">
<path d="M853.43 400.28C822.81 402.68 795.87 392 770 377C733.89 356 702.46 328.53 669 303.92C657.94 295.79 647 287.51 635.32 280.2C631.39 277.74 629.38 278.03 626.94 282.33C612.13 308.41 573.38 369.33 558.42 395.33C556.42 398.85 553.64 400.19 549.6 400.17C527.19 400.05 504.78 400.17 482.37 400.08C475.07 400.08 474.45 398.81 478.15 392.38C498.86 356.54 543.15 285.6 563.97 249.84C566.76 245.04 565.97 242.68 560.74 241.13C540.57 235.2 520.18 231 499 231.9C481.872 232.572 464.975 236.087 449 242.3C447 243.08 444.37 245.52 442.88 243C441.64 240.88 444.88 239.75 446.46 238.55C481.54 211.55 521.38 201.7 565.01 206.18C602.25 210 635.08 225.36 666.39 245.05C695.56 263.4 722.77 284.59 751.82 303.1C780.87 321.61 810.57 338.21 844.44 346.21C873.74 353.14 902.6 351.89 931.33 342.94C946.222 338.195 960.501 331.707 973.87 323.61C975.57 322.61 977.61 320.37 979.5 322.1C981.39 323.83 979.32 326.1 978.31 327.74C954.04 367.18 920.48 393.35 873.69 400.15C867.07 401.11 860.19 400.28 853.43 400.28Z" fill="#C0C0C0"/>
<path d="M852.69 278.87C831.29 279.02 810.88 273.79 790.69 267.48C784.93 265.68 781.05 262.11 778.02 256.81C758.02 221.757 737.877 186.797 717.59 151.93C715.32 148.03 713.77 141.21 709.91 141.21C705.91 141.21 704.71 148.08 702.41 152C689.72 173.7 677.05 195.41 664.6 217.25C661.95 221.9 658.99 222.46 654.81 219.82C638.422 209.34 620.921 200.711 602.63 194.09C596.49 191.9 599.34 188.52 601.23 185.24C618.057 156.167 634.893 127.1 651.74 98.0399C669.247 67.6732 686.713 37.2766 704.14 6.84993C704.87 5.56993 705.71 4.34993 706.51 3.09993C708.95 -0.740066 711.19 -0.650066 713.51 3.31993C729.63 31.3199 745.767 59.3199 761.92 87.3199C776.92 113.32 791.92 139.287 806.92 165.22C827.553 200.88 848.187 236.547 868.82 272.22C871.69 277.22 870.94 278.62 865.37 278.85C861.15 279 856.92 278.87 852.69 278.87Z" fill="#C0C0C0"/>
<path d="M880.32 275.48C882.32 272.76 884.67 272.31 886.75 271.48C930.59 253.87 960.75 209.87 960.38 162.7C959.9 110.06 934.6 73.0799 887.3 50.8399C880.791 47.7725 873.904 45.5802 866.82 44.3199C865.27 44.0499 862.68 44.3999 862.82 42.2399C862.95 39.6499 865.67 40.3199 867.41 40.2399C897 38.9999 923.76 47.1699 947 65.7899C970.89 84.9699 986 109.85 990.22 140.1C998.3 198.72 967.92 248.81 914.79 269.47C904.79 273.35 894.5 276.76 883.46 276.22C882.396 276.053 881.347 275.805 880.32 275.48Z" fill="#C0C0C0"/>
<path d="M762.06 283.28C767.32 285.35 771.96 287.11 776.55 288.99C800.645 298.957 826.475 304.055 852.55 303.99C902.88 303.87 944.14 283.93 976.86 245.72C985.43 235.72 992.86 225 1000.09 214.08C1001.17 212.45 1001.71 209.45 1004.44 210.54C1006.77 211.47 1006.2 214.24 1005.96 216.24C1002.9 241.47 995.09 264.73 978.3 284.49C956.3 310.42 927.08 321.61 894.51 327.35C869.92 331.68 846.51 328.23 823.51 320.43C802.655 313.325 783.163 302.72 765.87 289.07C764.734 288.122 763.699 287.06 762.78 285.9C762.41 285.51 762.44 284.81 762.06 283.28Z" fill="#C0C0C0"/>
<path d="M493.93 248.21C507.4 246.8 521.85 250.74 536.24 254.98C537.8 255.44 540.16 255.76 539.97 257.73C539.71 260.34 537.07 259.73 535.35 259.67C520.56 259.42 505.91 260.07 491.3 262.99C465.84 268.145 441.52 277.854 419.51 291.65C417.36 292.98 414.79 296.43 412.51 294.01C410.23 291.59 413.81 289.13 415.25 287.01C433.66 259.8 459.28 246.78 493.93 248.21Z" fill="#C0C0C0"/>
<path d="M1467.28 368C1467.28 377 1463.68 384.82 1457.67 391.43C1451.53 397.745 1443.05 401.226 1434.24 401.04C1424.63 401.04 1416.82 398.04 1410.24 391.43C1403.63 385.43 1400.63 377.61 1400.63 368V272.49C1400.63 255.67 1394.02 241.25 1382 229.84C1370 217.84 1355.57 212.42 1339.35 212.42C1323.73 212.42 1309.91 217.22 1298.5 227.42C1287.08 237.04 1280.5 250.25 1278.67 265.27V367.41C1278.67 377.02 1275.07 384.83 1268.46 391.41C1261.85 397.99 1254.04 401.02 1244.46 401.02C1235.65 401.206 1227.17 397.725 1221.03 391.41C1214.42 384.8 1210.82 376.99 1210.82 367.41V271.89C1210.82 255.07 1204.21 240.65 1192.82 229.24C1180.82 217.82 1166.38 212.42 1149.56 212.42C1133.94 212.42 1120.73 217.22 1109.31 227.42C1097.9 237.04 1091.31 249.65 1088.89 264.67V367.41C1088.89 377.02 1085.89 384.83 1079.27 391.41C1072.65 397.99 1064.86 401.02 1055.27 401.02C1045.68 401.02 1037.85 398.02 1031.84 391.41C1025.24 384.8 1022.23 376.99 1022.23 367.41V258.07C1025.84 226.23 1039.65 199.2 1064.28 177.57C1088.28 155.94 1117.15 145.13 1149.59 145.13C1187.44 145.13 1219.28 159.55 1244.51 187.18C1270.34 159.55 1302.18 145.13 1339.43 145.13C1374.27 145.13 1404.31 157.75 1429.54 181.78C1454.77 205.81 1467.39 235.24 1467.39 270.69L1467.28 368ZM1448.06 271.28C1448.06 241.28 1437.24 216.01 1416.22 195.58C1394.59 174.58 1368.76 164.34 1339.32 164.34C1296.67 164.34 1265.43 182.34 1244.4 219.01C1223.4 182.37 1191.53 164.34 1149.48 164.34C1123.05 164.34 1098.42 173.96 1075.59 193.78C1052.76 213.013 1041.35 235.843 1041.35 262.27V367.41C1041.35 377.02 1045.55 381.83 1055.16 381.83C1064.77 381.83 1070.16 377.02 1070.16 367.41V263.48C1072.56 243.65 1080.98 226.83 1095.99 213.62C1111.61 199.8 1128.99 193.19 1149.46 193.19C1171.09 193.19 1190.31 201 1206.53 216.02C1222.75 231.04 1230.53 249.66 1230.53 271.29V367.41C1230.53 377.02 1235.34 381.83 1244.35 381.83C1254.56 381.83 1259.35 377.02 1259.35 367.41V283.9L1258.75 271.29V263.48C1261.75 243.047 1270.75 226.227 1285.75 213.02C1300.75 199.8 1318.75 193.19 1339.22 193.19C1360.36 192.967 1380.72 201.176 1395.79 216C1411.41 231.02 1419.22 249.643 1419.22 271.87V368C1419.22 377.61 1424.03 381.82 1434.22 381.82C1443.22 381.82 1448.04 377.61 1448.04 368L1448.06 271.28Z" fill="#C0C0C0"/>
<path d="M1751.43 367.41C1751.43 377.02 1748.43 384.83 1741.82 391.41C1735.21 397.99 1727.4 401.02 1717.82 401.02C1704.6 401.02 1694.39 395.02 1687.82 382.4C1667.99 395.01 1646.37 401.62 1622.94 401.62C1587.49 401.62 1557.46 389.01 1532.22 364.38C1507.59 339.14 1494.98 309.11 1494.98 273.66C1494.98 238.21 1507.59 207.58 1532.22 182.35C1557.46 157.12 1587.49 144.5 1622.94 144.5C1658.39 144.5 1689.02 157.12 1714.25 181.75C1738.88 206.38 1751.5 237.02 1751.5 273.66L1751.43 367.41ZM1732.21 273.69C1732.21 243.05 1721.39 217.22 1700.37 195.59C1678.74 174.59 1652.91 163.75 1622.87 163.75C1592.23 163.75 1566.4 174.57 1545.37 195.59C1524.37 217.22 1513.53 243.05 1513.53 273.69C1513.53 303.69 1524.34 329.56 1545.97 350.59C1566.97 372.22 1592.83 382.432 1622.87 382.432C1639.64 382.524 1656.17 378.397 1670.93 370.43C1686.55 362.02 1697.93 351.21 1703.93 337.43V367.43C1703.93 377.04 1708.74 381.85 1717.75 381.85C1727.36 381.85 1732.17 377.043 1732.17 367.43L1732.21 273.69ZM1680.54 216C1696.16 232.22 1703.97 250.84 1703.97 273.67C1703.97 295.3 1696.16 314.52 1679.97 330.14C1663.78 345.76 1645.13 353.57 1622.9 353.57C1600.67 353.57 1581.45 345.76 1565.83 330.14C1550.62 315.315 1542.15 294.906 1542.4 273.67C1542.4 250.84 1550.21 232.22 1565.83 216C1581.45 200.38 1600.67 192.57 1622.9 192.57C1645.7 192.59 1664.32 200.4 1680.54 216ZM1666.12 317C1678.12 305 1684.12 290.58 1684.12 273.74C1684.12 256.32 1678.12 241.9 1666.7 229.89C1654.7 217.89 1640.27 211.89 1622.85 211.89C1606.03 211.89 1591.01 217.89 1579.59 229.89C1567.59 241.89 1561.59 256.32 1561.59 273.74C1561.59 290.56 1567.59 304.98 1579.59 317C1591.01 329 1606.03 335 1622.85 335C1639.67 335 1654.11 329 1666.12 317Z" fill="#C0C0C0"/>
<path d="M1917.83 154.74C1924.15 160.877 1927.63 169.364 1927.45 178.17C1927.58 186.848 1924.36 195.241 1918.45 201.6C1911.85 208.21 1904.04 211.81 1894.45 211.81C1877.63 211.81 1863.21 217.22 1851.2 229.24C1839.2 240.647 1833.2 255.063 1833.2 272.49V368C1833.2 377.61 1830.2 385.42 1823.58 391.43C1817.58 398.04 1809.77 401.04 1800.15 401.04C1790.53 401.04 1782.73 398.04 1776.15 391.43C1769.54 385.43 1766.53 377.61 1766.53 368V272.49C1766.53 237.05 1779.15 206.41 1803.78 181.78C1829.01 157.15 1859.05 144.53 1894.49 144.53C1903.42 144.53 1911.22 148.14 1917.83 154.74ZM1908.83 178.17C1908.83 168.563 1904.02 163.757 1894.41 163.75C1864.41 163.75 1838.54 174.57 1817.52 195.59C1795.89 216.59 1785.68 241.85 1785.68 272.49V368C1785.68 377.61 1790.48 381.82 1800.09 381.82C1809.7 381.82 1814.51 377.61 1814.51 368V272.49C1814.51 250.26 1822.32 231.64 1837.94 216.02C1852.77 200.814 1873.17 192.346 1894.41 192.59C1904.02 192.59 1908.83 187.783 1908.82 178.17H1908.83Z" fill="#C0C0C0"/>
<path d="M256.47 373.07C256.47 382.68 253.47 390.49 246.86 397.07C240.25 403.65 232.44 406.68 222.86 406.68C209.64 406.68 199.43 400.68 192.86 388.06C173.04 400.68 151.41 407.28 127.98 407.28C92.54 407.28 62.5 394.67 37.27 370.04C12.57 344.84 0 314.8 0 279.35C0 243.9 12.57 213.27 37.2 188C62.43 162.77 92.47 150.15 127.91 150.15C163.35 150.15 193.99 162.77 219.23 187.4C243.86 212.03 256.47 242.67 256.47 279.31V373.07ZM237.25 279.35C237.25 248.72 226.43 222.88 205.41 201.26C183.78 180.26 157.95 169.42 127.91 169.42C97.27 169.42 71.44 180.23 50.41 201.26C29.41 222.88 18.57 248.72 18.57 279.35C18.57 309.35 29.39 335.23 51.01 356.25C72.01 377.88 97.87 388.092 127.91 388.092C144.683 388.184 161.21 384.057 175.97 376.09C191.59 367.68 202.97 356.86 208.97 343.04V373.04C208.97 382.65 213.78 387.46 222.79 387.46C232.397 387.46 237.203 382.653 237.21 373.04L237.25 279.35ZM185.58 221.68C201.2 237.9 209 256.53 209 279.35C209 300.98 201.19 320.21 185 335.83C168.81 351.45 150.16 359.25 127.93 359.25C105.7 359.25 86.48 351.44 70.86 335.83C55.652 321.002 47.1842 300.589 47.43 279.35C47.43 256.53 55.24 237.9 70.86 221.68C86.48 206.06 105.7 198.25 127.93 198.25C150.74 198.25 169.36 206.06 185.58 221.68ZM171.16 322.61C183.16 310.61 189.16 296.19 189.16 279.35C189.16 261.93 183.16 247.51 171.74 235.5C159.74 223.5 145.3 217.5 127.88 217.5C111.06 217.5 96.04 223.5 84.63 235.5C72.63 247.5 66.63 261.93 66.63 279.35C66.63 296.183 72.63 310.603 84.63 322.61C96.04 334.61 111.06 340.61 127.88 340.61C144.7 340.61 159.15 334.62 171.16 322.61Z" fill="#C0C0C0"/>
<path d="M427.68 348.44C434.29 355.05 437.89 362.86 437.89 372.44C437.89 382.02 434.29 389.86 427.68 396.44C420.47 403.05 412.68 406.65 403.05 406.65C364.6 406.65 332.76 391.65 307.53 361C283.53 332.76 271.53 299.117 271.53 260.07V48.0599C271.53 38.4499 275.13 30.6399 281.74 24.0599C288.046 17.5742 296.694 13.8952 305.74 13.8499C315.35 13.8499 323.16 17.4599 329.74 24.0599C337 30.6399 340 38.4499 340 48.0599V260.13C339.861 278.905 345.758 297.229 356.82 312.4C368.82 329.22 384.46 338.23 403.08 338.23C412.358 337.986 421.302 341.698 427.68 348.44ZM418.07 372.44C418.07 362.83 413.26 357.44 403.07 357.44C379.07 357.44 358.62 347.23 342.39 326.2C327.98 307.58 320.77 285.35 320.77 260.12V48.0599C320.77 38.4499 315.36 33.6499 305.77 33.6499C296.18 33.6499 291.35 38.4499 291.35 48.0599V260.13C291.35 293.13 301.56 322.01 321.99 347.24C343.617 373.667 370.65 386.883 403.09 386.89C413.26 386.89 418.07 382.08 418.07 372.47V372.44Z" fill="#C0C0C0"/>
</g>
</g>
</g>
<defs>
<clipPath id="clip0_148_18">
<rect width="1928" height="408" fill="white"/>
</clipPath>
</defs>
</svg>
