<svg width="364" height="150" viewBox="0 0 364 150" fill="none" xmlns="http://www.w3.org/2000/svg">
<path d="M130.37 31.3496H136.45V71.9296C136.45 80.9896 133.37 85.5296 127.22 85.5296C123.97 85.5296 121.58 84.4996 120.05 82.4396C118.52 80.3796 117.76 77.2496 117.76 73.0596V66.0596H123.7V72.6596C123.7 75.3796 123.82 77.0396 124.05 77.6496C124.28 78.2596 124.52 78.7396 124.76 79.1096C125.23 79.8196 126.01 80.1696 127.1 80.1696C128.19 80.1696 128.96 79.7896 129.42 79.0296C129.88 78.2696 130.15 77.3396 130.24 76.2296C130.33 75.1296 130.37 73.7696 130.37 72.1696V31.3496Z" fill="#C0C0C0"/>
<path d="M154.87 31.3498H162.19L170.74 84.8898H165L163.53 74.6698H154.16L152.81 84.8898H147.02L154.87 31.3498ZM152.99 23.8398L165.3 18.5498V24.5998L152.99 27.2198V23.8398ZM154.84 69.5598H162.77L158.69 41.2698H158.6L154.84 69.5598Z" fill="#C0C0C0"/>
<path d="M194.95 31.3496H201V71.1396C201 76.1496 200.24 79.7996 198.72 82.0896C197.2 84.3796 194.57 85.5296 190.83 85.5296C187.09 85.5296 184.44 84.3796 182.9 82.0896C181.35 79.7996 180.58 76.1496 180.58 71.1396V31.3496H186.66V70.9796C186.66 74.5496 186.8 76.6796 187.09 77.3796C187.37 78.0796 187.67 78.6296 187.99 79.0396C188.54 79.8096 189.49 80.1996 190.84 80.1996C192.19 80.1996 193.19 79.7696 193.84 78.9196C194.49 78.0696 194.83 76.7996 194.88 75.1196C194.93 73.4396 194.95 72.0696 194.95 71.0096V31.3496Z" fill="#C0C0C0"/>
<path d="M213.62 31.3496H224.46C227.54 31.3496 229.75 32.0096 231.1 33.3296C232.45 34.6496 233.26 36.8896 233.54 40.0496C233.66 41.3496 233.72 43.3696 233.72 46.1196C233.72 48.8696 233.37 51.1696 232.68 53.0396C231.98 54.9096 230.76 56.1096 228.99 56.6596C230.28 56.8796 231.26 57.5896 231.93 58.7696C232.6 59.9596 233.07 61.8396 233.34 64.4296C233.61 67.0096 233.75 70.8596 233.75 75.9596C233.75 81.0596 233.91 84.0396 234.22 84.8896H228.17C227.86 84.2396 227.7 78.2296 227.7 66.8496C227.7 63.0196 227.34 60.7896 226.61 60.1696C225.89 59.5496 224.79 59.2396 223.32 59.2396L219.71 59.0296V84.8896H213.63V31.3496H213.62ZM227.7 44.4596C227.7 40.3396 227.34 37.9596 226.63 37.3096C225.91 36.6596 224.88 36.3396 223.53 36.3396H219.71V54.4096H223.59C224.77 54.4096 225.63 54.1796 226.18 53.7096C226.73 53.2396 227.12 52.3496 227.36 51.0296C227.59 49.7096 227.71 47.6396 227.71 44.8196V44.4596H227.7Z" fill="#C0C0C0"/>
<path d="M246.08 31.3496H261.54V36.5796H252.17V54.8996H261.04V60.1296H252.17V79.6596H261.66V84.8896H246.09V31.3496H246.08Z" fill="#C0C0C0"/>
<path d="M272.6 46.4997C272.6 38.6297 274.4 33.7397 278.01 31.8397C279.42 31.1097 280.97 30.7397 282.65 30.7197C285.8 30.7197 288.09 31.4097 289.5 32.7997C290.91 34.1897 291.82 36.0197 292.23 38.3097C292.64 40.5897 292.85 43.3597 292.85 46.6297V50.7697H286.97V43.7997C286.97 41.0597 286.7 39.0997 286.16 37.9297C285.62 36.7497 284.56 36.1697 282.99 36.1697C281.42 36.1697 280.3 36.9097 279.66 38.3897C279.01 39.8697 278.69 42.4897 278.69 46.2397V68.7497C278.69 73.0297 278.97 75.9997 279.54 77.6797C280.11 79.3497 281.23 80.1897 282.9 80.1897C284.57 80.1897 285.72 79.3297 286.34 77.5997C286.96 75.8797 287.27 72.8897 287.27 68.6297V61.6597H283.07V56.7897H292.85V84.8997H289.65L288.83 80.7597C287.67 83.8597 285.47 85.4097 282.2 85.4097C278.94 85.4097 276.52 84.0997 274.96 81.4697C273.39 78.8397 272.61 74.6697 272.61 68.9497V46.4997H272.6Z" fill="#C0C0C0"/>
<path d="M319.45 31.3496H325.5V71.1396C325.5 76.1496 324.74 79.7996 323.22 82.0896C321.7 84.3796 319.07 85.5296 315.33 85.5296C311.59 85.5296 308.94 84.3796 307.4 82.0896C305.85 79.7996 305.08 76.1496 305.08 71.1396V31.3496H311.16V70.9796C311.16 74.5496 311.3 76.6796 311.59 77.3796C311.87 78.0796 312.17 78.6296 312.49 79.0396C313.04 79.8096 313.99 80.1996 315.34 80.1996C316.69 80.1996 317.69 79.7696 318.34 78.9196C318.99 78.0696 319.33 76.7996 319.38 75.1196C319.43 73.4396 319.45 72.0696 319.45 71.0096V31.3496Z" fill="#C0C0C0"/>
<path d="M338.59 31.3496H344.67V84.8896H338.59V31.3496Z" fill="#C0C0C0"/>
<path d="M140.37 120.83L145.39 126H143.22L139.38 122.08C138.09 123.58 136.71 124.67 135.25 125.37C133.79 126.07 132.14 126.42 130.29 126.42C128.59 126.42 127.07 126.08 125.73 125.41C124.39 124.74 123.34 123.8 122.59 122.6C121.84 121.39 121.47 120.01 121.47 118.43C121.47 116.53 122.01 114.89 123.09 113.5C124.17 112.12 125.73 111.03 127.79 110.25C126.8 109.21 126.08 108.24 125.64 107.34C125.2 106.44 124.97 105.48 124.97 104.47C124.97 102.85 125.55 101.53 126.7 100.51C127.85 99.5002 129.37 98.9902 131.25 98.9902C132.37 98.9902 133.39 99.2202 134.33 99.6702C135.27 100.13 136 100.77 136.54 101.61C137.07 102.45 137.34 103.42 137.34 104.54H135.63C135.63 103.27 135.2 102.27 134.34 101.53C133.48 100.79 132.44 100.43 131.22 100.43C129.88 100.43 128.79 100.81 127.95 101.55C127.11 102.3 126.69 103.27 126.69 104.46C126.69 105.35 126.92 106.19 127.37 106.99C127.82 107.79 128.55 108.7 129.54 109.71L139.24 119.68C139.95 118.67 140.75 117.42 141.64 115.95L143.77 112.26H145.6L143.01 116.75C142.08 118.36 141.21 119.71 140.37 120.83ZM134.61 123.95C135.87 123.32 137.08 122.3 138.24 120.91L128.88 111.4L128.77 111.44C125.04 112.81 123.18 115.13 123.18 118.4C123.18 119.64 123.48 120.76 124.09 121.75C124.7 122.74 125.54 123.51 126.62 124.07C127.7 124.63 128.92 124.91 130.29 124.91C131.91 124.9 133.35 124.58 134.61 123.95Z" fill="#C0C0C0"/>
<path d="M175.37 119.15H162.7L160.15 126H158.29L168.1 99.8999H170L179.78 126H177.92L175.37 119.15ZM174.84 117.71L169.06 102.15L163.24 117.71H174.84Z" fill="#C0C0C0"/>
<path d="M185.32 124.78C183.86 123.77 183.04 122.32 182.87 120.44H184.62C184.75 121.78 185.36 122.85 186.47 123.64C187.58 124.43 189.08 124.82 190.98 124.82C192.55 124.82 193.8 124.42 194.73 123.62C195.66 122.82 196.12 121.84 196.12 120.67C196.12 119.86 195.87 119.19 195.38 118.67C194.89 118.15 194.27 117.75 193.53 117.47C192.79 117.19 191.79 116.89 190.52 116.56C189 116.15 187.77 115.76 186.83 115.36C185.89 114.97 185.09 114.38 184.43 113.59C183.77 112.8 183.44 111.75 183.44 110.43C183.44 109.47 183.73 108.57 184.32 107.75C184.9 106.93 185.71 106.27 186.75 105.79C187.79 105.31 188.97 105.07 190.29 105.07C192.45 105.07 194.19 105.61 195.52 106.69C196.85 107.77 197.57 109.26 197.67 111.16H195.96C195.88 109.79 195.35 108.67 194.36 107.81C193.37 106.95 192 106.52 190.25 106.52C188.78 106.52 187.56 106.9 186.6 107.66C185.64 108.42 185.15 109.35 185.15 110.44C185.15 111.4 185.42 112.18 185.97 112.78C186.51 113.38 187.19 113.83 187.99 114.15C188.79 114.47 189.85 114.8 191.17 115.16C192.62 115.54 193.78 115.91 194.65 116.28C195.53 116.65 196.27 117.18 196.88 117.88C197.49 118.58 197.79 119.51 197.79 120.68C197.79 121.75 197.5 122.71 196.91 123.57C196.33 124.43 195.51 125.1 194.48 125.59C193.44 126.07 192.27 126.31 190.98 126.31C188.66 126.31 186.78 125.8 185.32 124.78Z" fill="#C0C0C0"/>
<path d="M206.87 125.01C205.32 124.15 204.11 122.91 203.24 121.3C202.36 119.69 201.93 117.81 201.93 115.65C201.93 113.52 202.37 111.65 203.26 110.04C204.15 108.43 205.37 107.2 206.93 106.35C208.49 105.5 210.23 105.08 212.16 105.08C214.09 105.08 215.82 105.5 217.37 106.35C218.92 107.2 220.13 108.42 221 110.02C221.87 111.62 222.31 113.49 222.31 115.65C222.31 117.81 221.87 119.69 220.98 121.3C220.09 122.91 218.87 124.15 217.31 125.01C215.75 125.87 214.01 126.3 212.08 126.3C210.16 126.31 208.42 125.88 206.87 125.01ZM216.29 123.78C217.6 123.11 218.64 122.09 219.43 120.72C220.22 119.35 220.61 117.66 220.61 115.66C220.61 113.68 220.22 112.01 219.43 110.64C218.64 109.27 217.6 108.25 216.31 107.58C215.02 106.91 213.62 106.57 212.13 106.57C210.63 106.57 209.24 106.91 207.96 107.58C206.68 108.25 205.65 109.27 204.86 110.64C204.07 112.01 203.68 113.68 203.68 115.66C203.68 117.66 204.07 119.35 204.84 120.72C205.61 122.09 206.64 123.11 207.92 123.78C209.2 124.45 210.59 124.79 212.09 124.79C213.58 124.78 214.98 124.45 216.29 123.78Z" fill="#C0C0C0"/>
<path d="M227.74 110.02C228.59 108.42 229.77 107.2 231.28 106.35C232.79 105.5 234.52 105.08 236.47 105.08C239.06 105.08 241.18 105.73 242.84 107.02C244.5 108.31 245.53 110.05 245.94 112.23H244.15C243.82 110.46 242.96 109.06 241.58 108.05C240.2 107.04 238.49 106.53 236.46 106.53C234.94 106.53 233.56 106.87 232.31 107.54C231.07 108.21 230.07 109.24 229.32 110.62C228.57 112 228.2 113.68 228.2 115.66C228.2 117.66 228.57 119.35 229.32 120.72C230.07 122.09 231.06 123.12 232.31 123.8C233.55 124.48 234.93 124.83 236.46 124.83C238.49 124.83 240.19 124.32 241.58 123.31C242.96 122.3 243.82 120.9 244.15 119.13H245.94C245.53 121.29 244.49 123.02 242.82 124.34C241.15 125.66 239.03 126.32 236.47 126.32C234.52 126.32 232.79 125.89 231.28 125.03C229.77 124.17 228.59 122.93 227.74 121.32C226.89 119.71 226.47 117.83 226.47 115.67C226.46 113.5 226.89 111.62 227.74 110.02Z" fill="#C0C0C0"/>
<path d="M251 100.34C250.72 100.07 250.58 99.71 250.58 99.26C250.58 98.83 250.72 98.47 251 98.19C251.28 97.91 251.62 97.77 252.03 97.77C252.44 97.77 252.78 97.91 253.06 98.19C253.34 98.47 253.48 98.82 253.48 99.26C253.48 99.72 253.34 100.08 253.06 100.34C252.78 100.61 252.44 100.74 252.03 100.74C251.62 100.74 251.28 100.61 251 100.34ZM252.86 105.35V126H251.15V105.34H252.86V105.35Z" fill="#C0C0C0"/>
<path d="M259.35 110.06C260.2 108.46 261.38 107.23 262.89 106.37C264.4 105.51 266.12 105.08 268.04 105.08C270.22 105.08 272.07 105.61 273.59 106.68C275.11 107.75 276.18 109.1 276.79 110.75V105.35H278.5V126H276.79V120.56C276.18 122.23 275.11 123.61 273.58 124.69C272.05 125.77 270.2 126.31 268.04 126.31C266.11 126.31 264.39 125.87 262.89 125C261.38 124.12 260.2 122.88 259.35 121.27C258.5 119.66 258.08 117.79 258.08 115.66C258.07 113.52 258.5 111.66 259.35 110.06ZM275.67 110.88C274.92 109.5 273.9 108.43 272.61 107.68C271.32 106.93 269.87 106.56 268.27 106.56C266.6 106.56 265.12 106.92 263.86 107.64C262.6 108.36 261.6 109.41 260.89 110.78C260.18 112.15 259.83 113.77 259.83 115.65C259.83 117.53 260.18 119.15 260.89 120.52C261.6 121.89 262.6 122.94 263.88 123.68C265.16 124.42 266.63 124.78 268.27 124.78C269.87 124.78 271.32 124.41 272.63 123.66C273.94 122.91 274.96 121.85 275.69 120.46C276.43 119.08 276.79 117.47 276.79 115.65C276.79 113.85 276.42 112.26 275.67 110.88Z" fill="#C0C0C0"/>
<path d="M284.95 110.06C285.8 108.46 286.98 107.23 288.49 106.37C290 105.51 291.72 105.08 293.64 105.08C295.74 105.08 297.57 105.61 299.12 106.66C300.67 107.71 301.76 109.08 302.39 110.75V97.8501H304.1V126H302.39V120.52C301.78 122.22 300.72 123.61 299.19 124.69C297.67 125.77 295.82 126.31 293.64 126.31C291.71 126.31 289.99 125.87 288.49 125C286.98 124.12 285.8 122.88 284.95 121.27C284.1 119.66 283.68 117.79 283.68 115.66C283.68 113.52 284.1 111.66 284.95 110.06ZM301.27 110.88C300.52 109.5 299.5 108.43 298.21 107.68C296.92 106.93 295.47 106.56 293.87 106.56C292.2 106.56 290.72 106.92 289.46 107.64C288.2 108.36 287.2 109.41 286.49 110.78C285.78 112.15 285.43 113.77 285.43 115.65C285.43 117.53 285.78 119.15 286.49 120.52C287.2 121.89 288.2 122.94 289.48 123.68C290.76 124.42 292.23 124.78 293.87 124.78C295.47 124.78 296.92 124.41 298.23 123.66C299.54 122.91 300.56 121.85 301.29 120.46C302.03 119.08 302.39 117.47 302.39 115.65C302.39 113.85 302.02 112.26 301.27 110.88Z" fill="#C0C0C0"/>
<path d="M314.22 125.01C312.67 124.15 311.46 122.91 310.59 121.3C309.71 119.69 309.28 117.81 309.28 115.65C309.28 113.52 309.72 111.65 310.61 110.04C311.5 108.43 312.72 107.2 314.28 106.35C315.84 105.5 317.58 105.08 319.51 105.08C321.44 105.08 323.17 105.5 324.72 106.35C326.27 107.2 327.48 108.42 328.35 110.02C329.22 111.62 329.66 113.49 329.66 115.65C329.66 117.81 329.22 119.69 328.33 121.3C327.44 122.91 326.22 124.15 324.66 125.01C323.1 125.87 321.36 126.3 319.43 126.3C317.51 126.31 315.77 125.88 314.22 125.01ZM323.64 123.78C324.95 123.11 325.99 122.09 326.78 120.72C327.57 119.35 327.96 117.66 327.96 115.66C327.96 113.68 327.57 112.01 326.78 110.64C325.99 109.27 324.95 108.25 323.66 107.58C322.37 106.91 320.97 106.57 319.48 106.57C317.98 106.57 316.59 106.91 315.31 107.58C314.03 108.25 313 109.27 312.21 110.64C311.42 112.01 311.03 113.68 311.03 115.66C311.03 117.66 311.42 119.35 312.19 120.72C312.96 122.09 313.99 123.11 315.27 123.78C316.55 124.45 317.94 124.79 319.44 124.79C320.93 124.78 322.33 124.45 323.64 123.78Z" fill="#C0C0C0"/>
<path d="M336.12 124.78C334.66 123.77 333.84 122.32 333.67 120.44H335.42C335.55 121.78 336.16 122.85 337.27 123.64C338.38 124.43 339.88 124.82 341.78 124.82C343.35 124.82 344.6 124.42 345.53 123.62C346.46 122.82 346.92 121.84 346.92 120.67C346.92 119.86 346.67 119.19 346.18 118.67C345.69 118.15 345.07 117.75 344.33 117.47C343.59 117.19 342.59 116.89 341.32 116.56C339.8 116.15 338.57 115.76 337.63 115.36C336.69 114.97 335.89 114.38 335.23 113.59C334.57 112.8 334.24 111.75 334.24 110.43C334.24 109.47 334.53 108.57 335.12 107.75C335.7 106.93 336.51 106.27 337.55 105.79C338.59 105.31 339.77 105.07 341.09 105.07C343.25 105.07 344.99 105.61 346.32 106.69C347.65 107.77 348.37 109.26 348.47 111.16H346.76C346.68 109.79 346.15 108.67 345.16 107.81C344.17 106.95 342.8 106.52 341.05 106.52C339.58 106.52 338.36 106.9 337.4 107.66C336.44 108.42 335.95 109.35 335.95 110.44C335.95 111.4 336.22 112.18 336.77 112.78C337.31 113.38 337.99 113.83 338.79 114.15C339.59 114.47 340.65 114.8 341.97 115.16C343.42 115.54 344.58 115.91 345.45 116.28C346.33 116.65 347.07 117.18 347.68 117.88C348.29 118.58 348.59 119.51 348.59 120.68C348.59 121.75 348.3 122.71 347.71 123.57C347.13 124.43 346.31 125.1 345.28 125.59C344.24 126.07 343.07 126.31 341.78 126.31C339.46 126.31 337.57 125.8 336.12 124.78Z" fill="#C0C0C0"/>
<path d="M32.09 65.9302H40.83V110.68C40.83 123.71 36.41 130.22 27.57 130.22C22.89 130.22 19.46 128.74 17.27 125.78C15.07 122.82 13.97 118.33 13.97 112.3V102.25H22.5V111.74C22.5 115.64 22.67 118.04 23.01 118.91C23.35 119.78 23.68 120.48 24.03 121C24.7 122.02 25.82 122.53 27.38 122.53C28.95 122.53 30.06 121.99 30.72 120.89C31.38 119.8 31.77 118.45 31.9 116.87C32.02 115.28 32.09 113.34 32.09 111.03V65.9302Z" fill="#C0C0C0"/>
<path d="M98.57 129.9H47.73V120.78H89.44V28.59H22.15V91.83H13.03V19.46H98.57V129.9Z" fill="#C0C0C0"/>
<path d="M58.2101 47.75H49.6801V114.89H58.2101V47.75Z" fill="#C0C0C0"/>
<path d="M76.53 33.4897H68V114.89H76.53V33.4897Z" fill="#C0C0C0"/>
</svg>
