<svg width="302" height="72" viewBox="0 0 302 72" fill="none" xmlns="http://www.w3.org/2000/svg">
<path d="M275.674 63.1074L274.233 57.8074L275.015 57.4255C275.206 57.3255 276.837 56.4025 276.837 52.5256C276.837 52.5256 276.851 18.8436 276.851 17.7196C276.99 16.1672 276.345 14.6479 275.132 13.6696C274.55 13.2709 273.872 13.0357 273.169 12.9886L274.719 7.45853H290.279L291.835 12.9886C291.059 13.0372 290.316 13.3204 289.705 13.8006C288.603 14.7897 288.023 16.2352 288.138 17.7116C288.138 19.1916 288.163 52.5256 288.163 52.5256C288.163 55.9256 289.408 57.0595 289.871 57.3615L290.771 57.8075L289.327 63.1076L275.674 63.1074ZM128.95 63.1074L127.68 58.6585L127.505 57.8064L128.291 57.4225L128.204 57.4575C128.432 57.3575 130.135 56.5084 130.135 52.5285V28.0215L128.794 30.3015C126.384 34.4015 122.418 41.1656 120.894 43.7625C119.371 41.1625 111.651 28.0115 111.651 28.0115V52.5315C111.651 56.5435 113.427 57.3975 113.564 57.4565L113.494 57.4285L114.344 57.8375L112.837 63.1115H98.7605L97.4055 58.3885L97.1885 57.4954L98.0545 57.1715C98.5025 57.0335 100.391 56.2335 100.391 52.5325V17.8375L100.397 17.7795C100.734 15.7157 99.4277 13.7392 97.3965 13.2415L96.3965 12.9915L97.9495 7.46146H112.337C113.402 9.46946 118.372 18.8305 120.256 22.3715L120.893 23.5715L121.528 22.3715C123.403 18.8315 128.37 9.47147 129.436 7.46346H143.825L145.382 12.9935C144.47 13.0731 143.599 13.4102 142.872 13.9655C141.784 14.9015 141.226 16.3126 141.38 17.7395V18.1305V52.5304C141.38 56.4814 143.397 57.3305 143.627 57.4095L144.545 57.7524L143.014 63.1085L128.95 63.1074ZM29.4106 65.7164C16.9286 65.7164 10.3315 55.1365 10.3315 35.1165C10.3315 6.91648 25.3315 5.48348 28.3395 5.48348C30.3983 5.40531 32.4511 5.75113 34.3705 6.49948L34.5996 6.58649L35.2155 6.86049C35.7921 7.17701 36.437 7.34861 37.0945 7.36049C37.319 7.35958 37.5431 7.34085 37.7646 7.30449C38.5411 7.21236 39.2724 6.89023 39.8646 6.37949L39.9056 6.33849L40.2516 5.96849L44.5076 6.15949L44.8256 24.9905H36.9076H36.0556L35.8246 23.4706C35.1946 19.3606 34.5986 15.4796 29.5426 15.4796C23.4656 15.4796 22.7626 26.8386 22.7626 35.3796C22.7626 48.4576 24.8706 54.8146 29.2076 54.8146C33.0416 54.8146 34.4716 51.3254 34.7076 49.2645L34.8216 48.3835H45.7106L45.6756 49.4066C45.3986 57.5145 39.7226 65.7164 29.4106 65.7164ZM153.459 17.7385C153.613 16.3119 153.056 14.9005 151.97 13.9635C151.242 13.4084 150.371 13.0713 149.46 12.9915L151.017 7.46149L167.517 7.53849C179.372 7.53849 186.45 13.8115 186.45 24.3195C186.45 35.7785 180.434 41.1146 167.517 41.1146H164.717V52.5285C164.717 56.5405 166.493 57.3955 166.629 57.4534L166.56 57.4254L167.41 57.8335L165.894 63.1074H151.822L150.545 58.6325L150.332 57.7384L151.219 57.4044C151.438 57.3254 153.453 56.4864 153.453 52.5285V18.7485L153.459 17.7385ZM164.716 30.8385H166.396C171.91 30.8385 174.369 28.8315 174.369 24.3305C174.369 20.1365 171.538 17.8305 166.396 17.8305H164.716V30.8385ZM256.723 63.1074C255.461 60.0784 248.134 42.4964 247.407 40.7454L247.223 40.3025H244.731V52.5234C244.731 56.5234 246.444 57.3654 246.658 57.4544L246.571 57.4205L247.421 57.8294L245.916 63.1035H231.837L230.56 58.6295L230.35 57.7295L231.23 57.3955C231.288 57.3785 233.473 56.6315 233.473 52.5205V17.8045V17.7595C233.802 15.702 232.497 13.7362 230.473 13.2415L229.473 12.9915L231.024 7.45844L248.487 7.53743C259.903 7.53743 266.716 13.6605 266.716 23.9185C266.716 30.6675 264.39 35.3815 259.801 37.9305L259.252 38.2355L259.479 38.8204C260.391 41.1704 264.793 52.5685 264.793 52.5685C266.622 57.2025 269.437 57.8285 269.556 57.8525L270.556 58.0774L269.423 63.1085L256.723 63.1074ZM244.73 30.2405H247.422C252.757 30.2405 255.034 28.3525 255.034 23.9295C255.034 19.8535 252.334 17.6085 247.422 17.6085H244.73V30.2405ZM211.533 63.1725L210.281 58.7724L210.096 57.9835L210.823 57.5955C211.575 57.1365 212.002 56.2895 211.922 55.4114C211.92 55.0728 211.878 54.7357 211.798 54.4065C211.798 54.4065 210.641 49.2684 210.216 47.3904L210.089 46.8294H198.689L198.562 47.3895C198.136 49.2685 196.974 54.4114 196.974 54.4114C196.901 54.7397 196.865 55.0751 196.864 55.4114C196.785 56.2845 197.204 57.1277 197.947 57.5924L198.721 58.0035L197.242 63.1735H182.961L181.849 57.4095C183.349 57.1825 184.422 56.0866 184.979 54.2036C185.94 50.9515 194.84 17.7766 194.9 17.5406L194.911 17.4906C195.348 16.3012 195.189 14.9743 194.484 13.9216C194.111 13.4014 193.613 12.9839 193.036 12.7076L194.518 7.53453H214.261L215.735 12.7016C215.19 12.9472 214.715 13.3254 214.355 13.8016C213.573 14.8899 213.396 16.3002 213.886 17.5476C213.98 17.8646 222.636 50.8416 223.708 53.9626C224.597 56.5446 226.044 57.2846 227.015 57.5336L225.821 63.1725H211.533ZM200.948 36.9415H207.828L204.427 21.5805L200.948 36.9415ZM77.9885 63.1725L76.7355 58.7724L76.5525 57.9835L77.2775 57.5955C78.0303 57.1365 78.4569 56.2895 78.3775 55.4114C78.375 55.0728 78.3333 54.7357 78.2535 54.4065C78.2535 54.4065 77.0965 49.2684 76.6705 47.3904L76.5435 46.8294H65.1435L65.0165 47.3895C64.5905 49.2685 63.4285 54.4114 63.4285 54.4114C63.3557 54.7398 63.3188 55.0751 63.3185 55.4114C63.2393 56.2845 63.6581 57.1279 64.4015 57.5924L65.1755 58.0035L63.6975 63.1735H49.4165L48.3055 57.4095C49.8055 57.1825 50.8775 56.0866 51.4345 54.2036C52.3955 50.9515 61.2955 17.7766 61.3555 17.5406L61.3665 17.4906C61.8042 16.3012 61.6454 14.9741 60.9395 13.9216C60.5668 13.4014 60.0687 12.9839 59.4915 12.7076L60.9755 7.53453H80.7155L82.1885 12.7016C81.6437 12.947 81.1692 13.3252 80.8085 13.8016C80.0268 14.8898 79.8502 16.3002 80.3395 17.5476C80.4335 17.8646 89.0885 50.8416 90.1605 53.9626C91.0495 56.5446 92.4965 57.2846 93.4685 57.5336L92.2755 63.1755L77.9885 63.1725ZM67.4035 36.9415H74.2835L70.8835 21.5805L67.4035 36.9415ZM297.2 63.6365C297.039 62.8105 296.193 62.7034 295.486 62.7034H293.904V66.8775H294.698V65.0995H295.48L296.323 66.8775H297.205L296.276 64.9775C296.878 64.8964 297.3 64.3424 297.219 63.7403C297.214 63.7054 297.208 63.6708 297.2 63.6365ZM295.358 64.6015H294.699V63.2174H295.336C295.836 63.2174 296.379 63.2665 296.42 63.8735C296.469 64.5265 295.865 64.6015 295.354 64.6015H295.358ZM295.39 61.1754C293.357 61.1782 291.712 62.8282 291.715 64.8606C291.717 66.893 293.367 68.5382 295.4 68.5354C297.432 68.5326 299.077 66.8828 299.075 64.8504C299.075 64.8108 299.074 64.771 299.073 64.7314C298.991 62.7528 297.37 61.1871 295.39 61.1754ZM295.358 68.0465C293.59 68.0265 292.174 66.5776 292.194 64.8104C292.214 63.0432 293.663 61.6269 295.43 61.6469C297.197 61.667 298.614 63.1158 298.594 64.883C298.594 64.8852 298.594 64.8873 298.594 64.8895C298.555 66.6494 297.114 68.054 295.354 68.0465H295.358Z" fill="#C0C0C0"/>
</svg>
